<?xml version="1.0" encoding="UTF-8"?>
<svg version="1.1" xmlns="http://www.w3.org/2000/svg" width="1024" height="1024">
<path d="M0 0 C5.00041583 2.53075147 8.2078117 6.72885794 10 12 C10.78020695 17.47243745 9.88190898 21.19681836 7 26 C6.34 26 5.68 26 5 26 C4.566875 27.1446875 4.566875 27.1446875 4.125 28.3125 C3 31 3 31 1 34 C0.34 34 -0.32 34 -1 34 C-1.32484375 35.00740234 -1.32484375 35.00740234 -1.65625 36.03515625 C-3.42788838 39.94409094 -5.88088436 43.05723194 -8.5 46.4375 C-9.59243572 47.87011107 -10.68356034 49.30372277 -11.7734375 50.73828125 C-12.31838867 51.4545166 -12.86333984 52.17075195 -13.42480469 52.90869141 C-15.7108735 55.94379144 -17.92617969 59.02634117 -20.125 62.125 C-20.5262207 62.69041504 -20.92744141 63.25583008 -21.34082031 63.83837891 C-22.14916895 64.97871626 -22.95711266 66.11934077 -23.76464844 67.26025391 C-25.0478236 69.06734999 -26.33915376 70.86836474 -27.6328125 72.66796875 C-28.50527851 73.8827621 -29.37767534 75.09760515 -30.25 76.3125 C-30.66717285 76.89290039 -31.0843457 77.47330078 -31.51416016 78.07128906 C-34.42462848 82.14058731 -37.19099987 86.28212189 -39.84375 90.5234375 C-40.2253125 91.01070313 -40.606875 91.49796875 -41 92 C-41.66 92 -42.32 92 -43 92 C-43.07347656 92.54011719 -43.14695312 93.08023438 -43.22265625 93.63671875 C-44.31142566 96.9467966 -46.25298052 99.10315057 -48.4375 101.8125 C-52.23828868 106.60922462 -55.77070248 111.5062465 -59.125 116.625 C-63.82010747 123.77905654 -68.61548819 130.86337445 -74.0390625 137.4921875 C-76.00632444 139.90054258 -76.00632444 139.90054258 -77.390625 142.328125 C-79.5981246 145.99300298 -82.1683044 149.34232204 -84.75 152.75 C-85.28278564 153.45793701 -85.81557129 154.16587402 -86.36450195 154.89526367 C-89.77494067 159.41680024 -93.23472443 163.89409911 -96.79296875 168.30078125 C-98.19536536 170.10011928 -98.19536536 170.10011928 -99 173 C-99.66 173 -100.32 173 -101 173 C-101.226875 173.70125 -101.45375 174.4025 -101.6875 175.125 C-103.28470477 178.62363901 -105.50788129 181.08239761 -108 184 C-109.03013277 185.64821244 -110.03114628 187.31503702 -111 189 C-112.32346506 191.0065438 -113.65729179 193.00628175 -115 195 C-115.66 196.010625 -116.32 197.02125 -117 198.0625 C-120.82772586 203.68447236 -124.44866448 207.30316535 -130.125 210.9375 C-130.79225098 211.37352539 -131.45950195 211.80955078 -132.14697266 212.25878906 C-136.617539 215.16298625 -141.15273455 217.94515005 -145.75 220.64453125 C-148.01179873 222.00710792 -150.19207282 223.4523299 -152.375 224.9375 C-156.90598482 228.01209684 -161.62671613 230.70493736 -166.3984375 233.38671875 C-168.63377532 234.77289671 -170.26576073 236.04750613 -172 238 C-171.525625 238.804375 -171.05125 239.60875 -170.5625 240.4375 C-164.30621912 254.70182042 -167.45558294 276.23797938 -172.86328125 290.234375 C-173.54014206 291.83831057 -174.26379662 293.42242134 -175 295 C-175.66 295 -176.32 295 -177 295 C-177.14308594 295.83144531 -177.14308594 295.83144531 -177.2890625 296.6796875 C-180.97229935 308.70080118 -193.68533374 318.59483509 -204.3125 324.375 C-221.89562797 333.33094383 -241.78793782 335.21977948 -260.765625 329.2734375 C-265.79961613 327.29145548 -270.39287018 324.82007619 -275 322 C-276.39357674 321.20436775 -277.78909971 320.41212352 -279.1875 319.625 C-280.115625 319.08875 -281.04375 318.5525 -282 318 C-282 317.34 -282 316.68 -282 316 C-282.56976563 315.7525 -283.13953125 315.505 -283.7265625 315.25 C-291.71329198 310.85867107 -296.82453646 302.8241763 -301 295 C-301.36738281 294.39027344 -301.73476563 293.78054688 -302.11328125 293.15234375 C-310.34458647 278.69194268 -311.12211734 259.76019308 -307.75 243.8125 C-302.74738153 225.71547006 -290.18919176 210.48637646 -274 201 C-271.48768062 199.6646168 -268.94445397 198.40900192 -266.375 197.1875 C-265.76567627 196.89721924 -265.15635254 196.60693848 -264.52856445 196.30786133 C-248.44545527 188.98675226 -229.45075932 190.54536597 -213 196 C-210.18687449 197.25567378 -207.52980263 198.57201621 -204.8828125 200.14453125 C-202.84714726 201.32701383 -202.84714726 201.32701383 -200 200 C-198.73203245 198.53733856 -198.73203245 198.53733856 -197.625 196.75 C-195.45687806 193.41669688 -192.84111782 190.75414483 -190 188 C-187.01426461 185.06912257 -184.03788443 182.12888003 -181.0625 179.1875 C-180.27681641 178.41857422 -179.49113281 177.64964844 -178.68164062 176.85742188 C-173.30636815 171.52713076 -168.75407876 165.99063958 -164.46118164 159.77026367 C-163.9789917 159.18607666 -163.49680176 158.60188965 -163 158 C-162.34 158 -161.68 158 -161 158 C-160.814375 157.319375 -160.62875 156.63875 -160.4375 155.9375 C-158.78584977 152.56238865 -156.80578786 150.69712572 -154.10522461 148.14013672 C-151.91996194 145.91863463 -150.04687014 143.59188958 -148.12890625 141.13671875 C-142.25844568 133.89766611 -135.64339405 127.46015314 -129 120.9375 C-127.14288044 119.1080663 -125.2873087 117.27712336 -123.43457031 115.44325256 C-122.29215395 114.31303903 -121.14707446 113.1855094 -119.99902344 112.0610199 C-117.14045981 109.30497648 -117.14045981 109.30497648 -115 106 C-114.34 106 -113.68 106 -113 106 C-112.7421875 105.42765625 -112.484375 104.8553125 -112.21875 104.265625 C-110.88634058 101.78871005 -109.34943882 99.8658834 -107.5 97.75 C-106.8915625 97.04359375 -106.283125 96.3371875 -105.65625 95.609375 C-104 94 -104 94 -102 94 C-102 93.34 -102 92.68 -102 92 C-101.34 92 -100.68 92 -100 92 C-99.6894165 91.19828369 -99.6894165 91.19828369 -99.37255859 90.38037109 C-97.44912663 87.0446433 -94.77918677 84.57408238 -92.0390625 81.9140625 C-91.45208588 81.33465912 -90.86510925 80.75525574 -90.26034546 80.15829468 C-87.75687593 77.6874052 -85.24179383 75.22846118 -82.72753906 72.76855469 C-80.88970806 70.96707849 -79.05804364 69.15949043 -77.2265625 67.3515625 C-76.66288971 66.80448639 -76.09921692 66.25741028 -75.51846313 65.6937561 C-72.93064791 63.13796818 -70.69014955 60.67981237 -68.73583984 57.60302734 C-68.1630127 56.74402832 -67.59018555 55.8850293 -67 55 C-66.34 55 -65.68 55 -65 55 C-64.60230659 54.11384003 -64.60230659 54.11384003 -64.19657898 53.20977783 C-62.96231302 50.9304017 -61.69377154 49.45812977 -59.85473633 47.64355469 C-59.21679642 47.00899353 -58.57885651 46.37443237 -57.92158508 45.72064209 C-57.23203232 45.04454895 -56.54247955 44.36845581 -55.83203125 43.671875 C-55.11899338 42.9640387 -54.40595551 42.25620239 -53.67131042 41.5269165 C-51.38973806 39.26314228 -49.10161658 37.00614329 -46.8125 34.75 C-44.54206125 32.50733494 -42.27315071 30.26317841 -40.00724792 28.01593018 C-38.59870969 26.61947599 -37.18750874 25.22570033 -35.77314758 23.83514404 C-31.84058391 19.94186935 -28.16024992 15.94647425 -24.64653015 11.66900635 C-22.89000246 9.88850092 -21.28439982 8.9829457 -19 8 C-19 7.34 -19 6.68 -19 6 C-18.34 6 -17.68 6 -17 6 C-17 5.34 -17 4.68 -17 4 C-16.34 4 -15.68 4 -15 4 C-15 3.34 -15 2.68 -15 2 C-10.30265597 -1.13156269 -5.48923822 -0.80953837 0 0 Z M-258 234 C-258 234.66 -258 235.32 -258 236 C-258.99 236 -259.98 236 -261 236 C-263.22931824 237.81260132 -263.22931824 237.81260132 -265 240 C-265 240.66 -265 241.32 -265 242 C-265.66 242 -266.32 242 -267 242 C-272.68156119 249.3310467 -272.56689957 259.08585858 -271.7109375 268.015625 C-270.80836088 273.00274328 -269.18231316 277.43698158 -267 282 C-266.34 282 -265.68 282 -265 282 C-265 282.66 -265 283.32 -265 284 C-264.34 284 -263.68 284 -263 284 C-263 284.66 -263 285.32 -263 286 C-260.92395908 287.52994513 -260.92395908 287.52994513 -258.3125 289 C-257.44238281 289.515625 -256.57226562 290.03125 -255.67578125 290.5625 C-250.93914664 293.10714458 -247.07115448 294.29420309 -241.6875 294.6875 C-240.08455078 294.81705078 -240.08455078 294.81705078 -238.44921875 294.94921875 C-231.02691472 295.05849389 -226.32297807 294.33860319 -220.4375 289.4375 C-219.87957764 288.98930908 -219.32165527 288.54111816 -218.74682617 288.0793457 C-211.76601199 282.34891764 -205.65910585 276.78618886 -204.59375 267.43359375 C-204.31691522 255.63351112 -206.95181548 247.0486082 -215 238 C-217.36994913 236.23057672 -217.36994913 236.23057672 -219.9375 234.8125 C-220.77152344 234.32394531 -221.60554688 233.83539062 -222.46484375 233.33203125 C-228.45921872 230.1824444 -233.1025669 229.63487481 -239.8125 229.625 C-240.67681641 229.60050781 -241.54113281 229.57601562 -242.43164062 229.55078125 C-248.69086202 229.52243761 -252.60360841 230.82860146 -258 234 Z " fill="#7323D5" transform="translate(646,305)"/>
<path d="M0 0 C14.87759705 9.4077993 21.96647907 22.96697963 26.9934082 39.33618164 C27.53288086 40.88305664 27.53288086 40.88305664 28.08325195 42.46118164 C32.34719955 60.61498428 28.89947392 79.35026108 19.91137695 95.41821289 C18.77755045 97.43279855 18.77755045 97.43279855 18.9934082 100.33618164 C19.6534082 100.33618164 20.3134082 100.33618164 20.9934082 100.33618164 C20.9934082 100.99618164 20.9934082 101.65618164 20.9934082 102.33618164 C21.58637695 102.60043945 22.1793457 102.86469727 22.7902832 103.13696289 C25.07369875 104.37988589 26.46767544 105.6401981 28.2434082 107.52368164 C30.78510208 110.15283165 33.3959219 112.59109088 36.1809082 114.96118164 C39.14822998 117.54171245 41.89838463 119.96592633 43.9934082 123.33618164 C43.63455215 126.93206579 42.07981801 128.55497252 39.4934082 130.96118164 C36.87534175 133.3722908 36.87534175 133.3722908 34.9934082 136.33618164 C34.3334082 136.33618164 33.6734082 136.33618164 32.9934082 136.33618164 C32.75235352 136.88661133 32.51129883 137.43704102 32.26293945 138.00415039 C30.70020359 140.87477596 28.81328973 143.172252 26.6809082 145.64868164 C25.92165039 146.55231445 25.16239258 147.45594727 24.38012695 148.38696289 C21.9934082 150.33618164 21.9934082 150.33618164 19.69848633 150.29003906 C16.07845452 149.01355312 13.91632494 146.73957865 11.32543945 144.02368164 C10.80455246 143.49476318 10.28366547 142.96584473 9.74699402 142.42089844 C8.09022771 140.73520947 6.44770937 139.03643815 4.8059082 137.33618164 C3.15085554 135.63861783 1.49298925 133.94389454 -0.16731262 132.25146484 C-1.19821103 131.19887122 -2.22558808 130.14281498 -3.24906921 129.08300781 C-5.85798326 126.35867683 -5.85798326 126.35867683 -9.0065918 124.33618164 C-9.0065918 123.67618164 -9.0065918 123.01618164 -9.0065918 122.33618164 C-9.8934668 122.91368164 -10.7803418 123.49118164 -11.6940918 124.08618164 C-27.02848023 132.62222291 -44.61851807 132.22335529 -61.1394043 127.59399414 C-71.22088332 124.47106176 -80.73498923 118.84786877 -89.0065918 112.33618164 C-89.0065918 111.67618164 -89.0065918 111.01618164 -89.0065918 110.33618164 C-89.58666992 110.10543945 -90.16674805 109.87469727 -90.7644043 109.63696289 C-102.11481954 103.05214011 -107.71542239 84.24297776 -111.0065918 72.33618164 C-114.80840345 55.11621119 -111.41499573 36.99873319 -102.3737793 22.10180664 C-101.92260742 21.51915039 -101.47143555 20.93649414 -101.0065918 20.33618164 C-100.3465918 20.33618164 -99.6865918 20.33618164 -99.0065918 20.33618164 C-98.80163086 19.64395508 -98.59666992 18.95172852 -98.38549805 18.23852539 C-96.55163049 14.37857186 -93.98071084 11.85914858 -90.9440918 8.89868164 C-90.3548291 8.32174561 -89.76556641 7.74480957 -89.15844727 7.15039062 C-80.46460178 -1.21236246 -71.32520878 -5.6404984 -60.0065918 -9.66381836 C-58.9547168 -10.04022461 -57.9028418 -10.41663086 -56.8190918 -10.80444336 C-36.13018976 -15.46792538 -17.6203826 -10.66776888 0 0 Z M-59.3894043 30.89868164 C-59.92307617 31.37305664 -60.45674805 31.84743164 -61.0065918 32.33618164 C-61.0065918 32.99618164 -61.0065918 33.65618164 -61.0065918 34.33618164 C-61.5840918 34.58368164 -62.1615918 34.83118164 -62.7565918 35.08618164 C-65.33599159 36.51918153 -67.06780772 38.12042841 -69.0065918 40.33618164 C-69.0065918 40.99618164 -69.0065918 41.65618164 -69.0065918 42.33618164 C-69.6665918 42.33618164 -70.3265918 42.33618164 -71.0065918 42.33618164 C-75.35962475 51.62265193 -75.18788714 63.69235962 -72.0065918 73.33618164 C-69.15945423 80.28688589 -65.40455327 84.473926 -59.0065918 88.33618164 C-58.09200195 88.95686523 -58.09200195 88.95686523 -57.15893555 89.59008789 C-49.55879888 93.92654758 -39.45057054 93.56751747 -31.0065918 92.33618164 C-26.77969272 90.93042477 -23.53989379 89.0187589 -20.0065918 86.33618164 C-19.34530273 85.90305664 -18.68401367 85.46993164 -18.00268555 85.02368164 C-10.90846988 79.87539554 -7.39613616 71.08177288 -5.4440918 62.77368164 C-4.30451386 54.8878023 -6.93459449 47.07063872 -11.0065918 40.33618164 C-18.40341278 30.60352246 -27.02379095 26.2064013 -39.0222168 24.53149414 C-47.11081514 24.00213561 -52.80647843 26.3430236 -59.3894043 30.89868164 Z " fill="#7323D5" transform="translate(448.006591796875,310.663818359375)"/>
<path d="M0 0 C1.19625 -0.02578125 2.3925 -0.0515625 3.625 -0.078125 C8.06860457 0.35389211 10.66945946 1.8209009 13.6875 5.0625 C16.78642308 10.2273718 17.33780248 15.46709936 17.5625 21.375 C17.69239325 26.34076517 17.69239325 26.34076517 18.50354004 31.21856689 C19.02500418 33.35231301 19.15091098 35.23875102 19.18945312 37.43261719 C19.20617065 38.24736511 19.22288818 39.06211304 19.2401123 39.90155029 C19.25368774 40.77450745 19.26726318 41.6474646 19.28125 42.546875 C19.29965942 43.45447571 19.31806885 44.36207642 19.33703613 45.29718018 C19.3956925 48.1980552 19.44850562 51.09898956 19.5 54 C19.56808025 57.80740389 19.64184976 61.61464026 19.71875 65.421875 C19.73232544 66.28673523 19.74590088 67.15159546 19.7598877 68.04266357 C19.84954814 72.47999144 20.17379775 76.75066394 20.78283691 81.15411377 C21.21662367 85.34068023 21.10221772 89.54603209 21.0625 93.75 C21.05798828 94.6678125 21.05347656 95.585625 21.04882812 96.53125 C21.03716326 98.77090391 21.02079614 101.01041545 21 103.25 C22.19488037 103.2185791 23.38976074 103.1871582 24.62084961 103.15478516 C29.08785646 103.0455296 33.55474722 102.97706699 38.02270508 102.92041016 C39.94999097 102.89038459 41.87714191 102.8495502 43.80395508 102.79736328 C63.11857144 102.28763731 63.11857144 102.28763731 69.77172852 107.75537109 C71 109.25 71 109.25 71 111.25 C71.639375 111.45625 72.27875 111.6625 72.9375 111.875 C75 113.25 75 113.25 76 115.875 C76 121.63390478 72.87119335 127.02687999 69 131.25 C68.34 131.25 67.68 131.25 67 131.25 C67 131.91 67 132.57 67 133.25 C66.34 133.25 65.68 133.25 65 133.25 C64.7525 133.806875 64.505 134.36375 64.25 134.9375 C62.77075182 137.67410913 61.06532561 139.92650869 59 142.25 C58.34 142.25 57.68 142.25 57 142.25 C56.74476563 142.83193115 56.48953125 143.4138623 56.2265625 144.01342773 C54.87583737 146.47640403 53.38452615 148.07791981 51.375 150.03515625 C50.66859375 150.73060547 49.9621875 151.42605469 49.234375 152.14257812 C48.49703125 152.85865234 47.7596875 153.57472656 47 154.3125 C45.53943012 155.73859839 44.08100233 157.16689484 42.625 158.59765625 C41.65433594 159.54137085 41.65433594 159.54137085 40.6640625 160.50415039 C38.8083697 162.35051934 38.8083697 162.35051934 37 165.25 C36.34 165.25 35.68 165.25 35 165.25 C35 165.91 35 166.57 35 167.25 C34.34 167.25 33.68 167.25 33 167.25 C32.7525 167.8275 32.505 168.405 32.25 169 C30.81700012 171.57939979 29.21575324 173.31121592 27 175.25 C26.34 175.25 25.68 175.25 25 175.25 C25 175.91 25 176.57 25 177.25 C24.34 177.25 23.68 177.25 23 177.25 C23 177.91 23 178.57 23 179.25 C22.34 179.25 21.68 179.25 21 179.25 C20.7525 179.86875 20.505 180.4875 20.25 181.125 C18.79371361 183.60068687 17.62187494 184.20125002 15 185.25 C15 185.91 15 186.57 15 187.25 C13.34997172 188.60386936 11.6825613 189.93678142 10 191.25 C9.67 191.91 9.34 192.57 9 193.25 C8.34 193.25 7.68 193.25 7 193.25 C7 193.91 7 194.57 7 195.25 C2.73137849 197.38431075 -2.39026402 196.97422286 -7 196.25 C-10.21996241 194.38066012 -12.72818866 192.20335474 -15 189.25 C-15 188.59 -15 187.93 -15 187.25 C-15.66 187.25 -16.32 187.25 -17 187.25 C-17 186.59 -17 185.93 -17 185.25 C-17.66 185.25 -18.32 185.25 -19 185.25 C-19 184.59 -19 183.93 -19 183.25 C-19.66 183.25 -20.32 183.25 -21 183.25 C-22.28491211 181.93945312 -22.28491211 181.93945312 -23.83984375 180.03125 C-27.0444544 176.2617054 -30.42274502 172.75271668 -33.94140625 169.28125 C-34.47583344 168.75249268 -35.01026062 168.22373535 -35.56088257 167.67895508 C-37.78665134 165.48009913 -40.01635589 163.2853239 -42.25073242 161.09521484 C-53.71310578 149.84476774 -53.71310578 149.84476774 -57.79516602 143.84130859 C-59.14956675 142.05245672 -60.6249239 140.77335128 -62.375 139.375 C-63.24125 138.67375 -64.1075 137.9725 -65 137.25 C-65 136.59 -65 135.93 -65 135.25 C-65.66 135.25 -66.32 135.25 -67 135.25 C-67 134.59 -67 133.93 -67 133.25 C-67.66 133.25 -68.32 133.25 -69 133.25 C-69 132.59 -69 131.93 -69 131.25 C-69.66 131.25 -70.32 131.25 -71 131.25 C-71 130.59 -71 129.93 -71 129.25 C-71.66 129.25 -72.32 129.25 -73 129.25 C-73 128.59 -73 127.93 -73 127.25 C-73.66 127.25 -74.32 127.25 -75 127.25 C-77.76972893 122.15369877 -78.50642477 118.3349176 -77.70703125 112.5546875 C-76.29565521 107.95406948 -73.04449988 106.34132574 -68.9152832 104.13720703 C-64.64184475 102.83667313 -60.54666843 103.0045713 -56.10546875 103.0546875 C-55.15811356 103.0575174 -54.21075836 103.06034729 -53.23469543 103.06326294 C-50.21883334 103.07442813 -47.20327184 103.09952611 -44.1875 103.125 C-42.13867617 103.13503453 -40.08984768 103.14415955 -38.04101562 103.15234375 C-33.02722852 103.17435551 -28.01366517 103.20886029 -23 103.25 C-23.00444122 102.6364566 -23.00888245 102.02291321 -23.01345825 101.39077759 C-23.37322446 49.23548835 -23.37322446 49.23548835 -22.25 28.375 C-22.21924377 27.69769836 -22.18848755 27.02039673 -22.15679932 26.3225708 C-21.73758827 17.47331736 -20.98008443 9.33213788 -14.5625 2.75 C-9.95090873 0.05053194 -5.26356766 0.06806337 0 0 Z " fill="#7324D5" transform="translate(524,553.75)"/>
<path d="M0 0 C4.95769796 -0.29162929 8.02806853 -0.12940055 12 3 C12 3.66 12 4.32 12 5 C12.66 5 13.32 5 14 5 C15.5078125 6.4609375 15.5078125 6.4609375 17.125 8.375 C17.66382813 9.00148438 18.20265625 9.62796875 18.7578125 10.2734375 C20 12 20 12 20 14 C20.59296875 14.2578125 21.1859375 14.515625 21.796875 14.78125 C24.17660965 16.09769895 25.50978792 17.42580782 27.25 19.5 C28.03117188 20.41265625 28.03117188 20.41265625 28.828125 21.34375 C30 23 30 23 30 25 C30.66 25 31.32 25 32 25 C32 25.66 32 26.32 32 27 C32.66 27 33.32 27 34 27 C34 27.66 34 28.32 34 29 C34.66 29 35.32 29 36 29 C36 29.66 36 30.32 36 31 C36.66 31 37.32 31 38 31 C39.41015625 32.43359375 39.41015625 32.43359375 41.0625 34.4375 C43.75174994 37.60757217 46.53513377 40.58581525 49.5 43.5 C60.44378194 54.33134583 60.44378194 54.33134583 62 59 C62.66 59 63.32 59 64 59 C64 59.66 64 60.32 64 61 C64.66 61 65.32 61 66 61 C67.33984375 62.36328125 67.33984375 62.36328125 68.9375 64.3125 C71.98318804 67.90615702 75.20647805 71.26101056 78.5625 74.5625 C82.59677998 78.56343882 86.48409513 82.53385058 90 87 C90 87.66 90 88.32 90 89 C91.98 89.99 91.98 89.99 94 91 C94 91.66 94 92.32 94 93 C94.66 93 95.32 93 96 93 C97.41015625 94.43359375 97.41015625 94.43359375 99.0625 96.4375 C101.8319157 99.74443942 104.76122597 102.64674056 107.9375 105.5625 C110.76208206 108.39191867 111.88673974 109.57716171 112.9375 113.5 C111.62603243 118.39614561 109.13888436 122.05921088 106 126 C105.58363281 126.57621094 105.16726563 127.15242187 104.73828125 127.74609375 C101.95850051 129.7512839 99.36162839 129.35802205 96 129.3125 C94.7625 129.30863281 93.525 129.30476562 92.25 129.30078125 C89 129 89 129 86 127 C86 126.34 86 125.68 86 125 C85.34 125 84.68 125 84 125 C84 124.34 84 123.68 84 123 C82.02 122.01 82.02 122.01 80 121 C80 120.34 80 119.68 80 119 C79.34 119 78.68 119 78 119 C78 118.34 78 117.68 78 117 C77.43829102 116.7628125 76.87658203 116.525625 76.29785156 116.28125 C73.47417342 114.70680643 71.52385158 112.78315455 69.234375 110.5 C68.34492187 109.613125 67.45546875 108.72625 66.5390625 107.8125 C65.61867188 106.884375 64.69828125 105.95625 63.75 105 C62.81414062 104.071875 61.87828125 103.14375 60.9140625 102.1875 C60.02976562 101.300625 59.14546875 100.41375 58.234375 99.5 C57.42194336 98.6853125 56.60951172 97.870625 55.77246094 97.03125 C54 95 54 95 54 93 C53.19369141 92.66935547 53.19369141 92.66935547 52.37109375 92.33203125 C49.19806038 90.54948697 46.69695486 88.1640849 44.0625 85.6875 C43.55009766 85.21376953 43.03769531 84.74003906 42.50976562 84.25195312 C40.99569842 82.84562132 39.49596373 81.42555377 38 80 C37.04996094 79.09894531 36.09992187 78.19789063 35.12109375 77.26953125 C33 75 33 75 33 73 C32.1327832 72.62282837 32.1327832 72.62282837 31.24804688 72.23803711 C28.71216525 70.84148458 27.05098093 69.26221701 25.03125 67.19140625 C23.92716797 66.07088867 23.92716797 66.07088867 22.80078125 64.92773438 C22.04152344 64.14720703 21.28226563 63.36667969 20.5 62.5625 C18.99191658 61.019851 17.48157739 59.47940327 15.96875 57.94140625 C15.30294922 57.25763916 14.63714844 56.57387207 13.95117188 55.86938477 C12.03170414 53.94385621 12.03170414 53.94385621 9.75195312 52.37866211 C9.17380859 51.92370361 8.59566406 51.46874512 8 51 C8 50.34 8 49.68 8 49 C7.34 49 6.68 49 6 49 C4.37890625 47.3203125 4.37890625 47.3203125 2.5625 45.125 C0.41599116 42.53806278 -1.16776562 40.88815626 -4 39 C-4 38.34 -4 37.68 -4 37 C-4.66 37 -5.32 37 -6 37 C-6 36.34 -6 35.68 -6 35 C-6.66 35 -7.32 35 -8 35 C-8 34.34 -8 33.68 -8 33 C-8.66 33 -9.32 33 -10 33 C-13.18220906 29.37469854 -15.89470979 25.75483675 -16.1875 20.875 C-14.66732824 17.19458415 -12.75523738 13.90115338 -10 11 C-9.34 11 -8.68 11 -8 11 C-8 10.34 -8 9.68 -8 9 C-7.34 9 -6.68 9 -6 9 C-5.34 7.35 -4.68 5.7 -4 4 C-3.34 4 -2.68 4 -2 4 C-1.34 2.68 -0.68 1.36 0 0 Z " fill="#7324D5" transform="translate(543,496)"/>
<path d="M0 0 C1.8671875 0.85546875 1.8671875 0.85546875 3.8671875 3.85546875 C3.8671875 4.84546875 3.8671875 5.83546875 3.8671875 6.85546875 C2.9390625 6.36046875 2.9390625 6.36046875 1.9921875 5.85546875 C-0.04299594 4.7135364 -0.04299594 4.7135364 -2.1328125 4.85546875 C-7.61800062 7.48835905 -11.30161316 10.7975174 -15.43359375 15.24609375 C-17.1328125 16.85546875 -17.1328125 16.85546875 -19.1328125 16.85546875 C-19.2565625 17.63921875 -19.3803125 18.42296875 -19.5078125 19.23046875 C-20.1328125 21.85546875 -20.1328125 21.85546875 -22.1328125 23.85546875 C-24.27118428 31.45064852 -24.7487291 39.0689042 -25.2578125 46.91796875 C-25.34417969 48.16513672 -25.43054688 49.41230469 -25.51953125 50.69726562 C-25.73003981 53.74963974 -25.93430989 56.80229436 -26.1328125 59.85546875 C-26.7928125 59.85546875 -27.4528125 59.85546875 -28.1328125 59.85546875 C-28.32617188 60.73589844 -28.51953125 61.61632812 -28.71875 62.5234375 C-28.97914063 63.68488281 -29.23953125 64.84632813 -29.5078125 66.04296875 C-29.76304687 67.19152344 -30.01828125 68.34007812 -30.28125 69.5234375 C-31.02753702 72.44354223 -31.93713038 75.09500264 -33.1328125 77.85546875 C-33.4628125 77.85546875 -33.7928125 77.85546875 -34.1328125 77.85546875 C-34.18806476 76.50178834 -34.22615619 75.1474064 -34.2578125 73.79296875 C-34.28101563 73.03886719 -34.30421875 72.28476562 -34.328125 71.5078125 C-34.12935342 68.80849443 -33.45859224 66.4843181 -32.671875 63.90551758 C-31.58051429 59.75508466 -31.13258733 55.47876749 -30.5703125 51.23046875 C-30.32026236 49.38394462 -30.06899937 47.53758424 -29.81640625 45.69140625 C-29.65483032 44.47783447 -29.65483032 44.47783447 -29.48999023 43.23974609 C-29.11825677 40.75830451 -28.64386084 38.31166584 -28.1328125 35.85546875 C-27.8028125 35.85546875 -27.4728125 35.85546875 -27.1328125 35.85546875 C-27.07222656 34.9634375 -27.01164062 34.07140625 -26.94921875 33.15234375 C-26.86542969 31.981875 -26.78164063 30.81140625 -26.6953125 29.60546875 C-26.61410156 28.4453125 -26.53289062 27.28515625 -26.44921875 26.08984375 C-26.20033463 23.54569499 -25.85166308 21.29593627 -25.1328125 18.85546875 C-25.7928125 18.85546875 -26.4528125 18.85546875 -27.1328125 18.85546875 C-27.1328125 21.49546875 -27.1328125 24.13546875 -27.1328125 26.85546875 C-29.26045696 23.39804651 -29.91974985 20.86884923 -29.1328125 16.85546875 C-24.95759432 11.62510032 -19.84827782 9.07629093 -13.66015625 6.90234375 C-10.09782231 5.42675566 -7.19539926 3.25740294 -4.140625 0.9296875 C-2.1328125 -0.14453125 -2.1328125 -0.14453125 0 0 Z M-28.1328125 47.85546875 C-28.1328125 49.50546875 -28.1328125 51.15546875 -28.1328125 52.85546875 C-27.8028125 52.85546875 -27.4728125 52.85546875 -27.1328125 52.85546875 C-27.1328125 51.20546875 -27.1328125 49.55546875 -27.1328125 47.85546875 C-27.4628125 47.85546875 -27.7928125 47.85546875 -28.1328125 47.85546875 Z " fill="#000000" transform="translate(517.1328125,532.14453125)"/>
<path d="M0 0 C0.33 0 0.66 0 1 0 C2.16036244 19.000935 2.10543318 37.97336636 2 57 C1.14888641 57.0154612 1.14888641 57.0154612 0.28057861 57.03123474 C-5.62426028 57.13940321 -11.52894976 57.25399285 -17.43359375 57.37231445 C-19.637338 57.4156301 -21.84111508 57.45730759 -24.04492188 57.49731445 C-27.21234024 57.55509844 -30.37959386 57.61876976 -33.546875 57.68359375 C-34.53242371 57.70030624 -35.51797241 57.71701874 -36.53338623 57.73423767 C-37.91436493 57.7641555 -37.91436493 57.7641555 -39.32324219 57.79467773 C-40.53569611 57.81799416 -40.53569611 57.81799416 -41.77264404 57.84178162 C-43.95806731 57.99702135 -45.89708581 58.40008809 -48 59 C-48 58.34 -48 57.68 -48 57 C-43.13508757 54.44603144 -38.45314812 54.74408381 -33.10546875 54.8046875 C-32.26520142 54.80670166 -31.42493408 54.80871582 -30.5592041 54.81079102 C-27.43524681 54.82121595 -24.31136764 54.84913846 -21.1875 54.875 C-10.6996875 54.936875 -10.6996875 54.936875 0 55 C0 36.85 0 18.7 0 0 Z " fill="#471587" transform="translate(501,602)"/>
<path d="M0 0 C0.66 0 1.32 0 2 0 C4 3 4 3 4 6 C4.66 6 5.32 6 6 6 C6 6.66 6 7.32 6 8 C6.66 8 7.32 8 8 8 C8 8.66 8 9.32 8 10 C8.721875 10.268125 9.44375 10.53625 10.1875 10.8125 C12.98122462 11.99207262 15.40366234 13.4421974 18 15 C22.94711448 17.44657298 27.90056965 17.40123367 33.29296875 17.56640625 C37.02149223 17.72669791 38.8219496 17.88129974 42 20 C38.16275828 20.90413673 34.62497726 21.10576898 30.6875 21.0625 C29.08455078 21.04896484 29.08455078 21.04896484 27.44921875 21.03515625 C26.64097656 21.02355469 25.83273437 21.01195312 25 21 C25 20.34 25 19.68 25 19 C23.02 19.99 23.02 19.99 21 21 C21 21.66 21 22.32 21 23 C21.66 23 22.32 23 23 23 C23 23.66 23 24.32 23 25 C19.7 25 16.4 25 13 25 C13 24.34 13 23.68 13 23 C12.34 23 11.68 23 11 23 C11 22.34 11 21.68 11 21 C11.763125 20.71125 12.52625 20.4225 13.3125 20.125 C16.15029308 19.03730987 16.15029308 19.03730987 19 17 C17.02 17.66 15.04 18.32 13 19 C13 18.34 13 17.68 13 17 C13.66 17 14.32 17 15 17 C15 16.34 15 15.68 15 15 C13.68 15 12.36 15 11 15 C11 14.34 11 13.68 11 13 C10.34 13 9.68 13 9 13 C9 12.34 9 11.68 9 11 C8.071875 10.855625 7.14375 10.71125 6.1875 10.5625 C3 9 3 9 1.93359375 6.86328125 C1.19449517 4.58885712 0.54605174 2.32790481 0 0 Z " fill="#7026C8" transform="translate(375,581)"/>
<path d="M0 0 C2.80163128 0.35330306 3.87198353 0.86687363 5.859375 2.93359375 C6.48328125 3.75988281 7.1071875 4.58617187 7.75 5.4375 C8.43578125 6.3346875 9.1215625 7.231875 9.828125 8.15625 C10.54484375 9.0946875 11.2615625 10.033125 12 11 C14.17101263 13.62884523 16.34652938 16.25363039 18.53125 18.87109375 C20 21 20 21 20 24 C19.34 24 18.68 24 18 24 C18 23.34 18 22.68 18 22 C17.34 22 16.68 22 16 22 C16 21.34 16 20.68 16 20 C15.34 20 14.68 20 14 20 C12.28769752 18.38025441 10.62836738 16.7041054 9 15 C8.071875 14.071875 7.14375 13.14375 6.1875 12.1875 C5.465625 11.465625 4.74375 10.74375 4 10 C4 12.97 4 15.94 4 19 C0.65227918 15.65227918 0.10231674 11.06871666 -0.125 6.47265625 C-0.125 4.31121831 -0.08997599 2.15942371 0 0 Z " fill="#000000" transform="translate(551,565)"/>
<path d="M0 0 C0.33 0 0.66 0 1 0 C2.15839559 9.26716472 2 18.66071618 2 28 C15.53 28 29.06 28 43 28 C43 28.99 43 29.98 43 31 C41.87722656 30.83628906 40.75445313 30.67257812 39.59765625 30.50390625 C31.91248857 29.64999873 24.15874965 29.8951151 16.4375 29.9375 C14.84049619 29.94252457 13.24349086 29.94708579 11.64648438 29.95117188 C7.76428467 29.96210272 3.88215949 29.97931467 0 30 C-0.16728213 25.88850113 -0.32787468 21.77680194 -0.48217773 17.66479492 C-0.53566026 16.26498319 -0.59099434 14.86524096 -0.64819336 13.46557617 C-0.72992949 11.4577104 -0.80453025 9.44955813 -0.87890625 7.44140625 C-0.9260376 6.23170166 -0.97316895 5.02199707 -1.02172852 3.77563477 C-1 1 -1 1 0 0 Z " fill="#571BA1" transform="translate(543,629)"/>
<path d="M0 0 C1.35094757 0.0001133 1.35094757 0.0001133 2.72918701 0.00022888 C4.1746994 0.00797081 4.1746994 0.00797081 5.64941406 0.01586914 C6.64257629 0.01728409 7.63573853 0.01869904 8.65899658 0.02015686 C11.82770818 0.02574951 14.99634885 0.03830069 18.16503906 0.05102539 C20.31477762 0.05604134 22.4645173 0.06060408 24.61425781 0.06469727 C29.88120905 0.07571653 35.14811899 0.09244739 40.41503906 0.11352539 C40.41503906 0.44352539 40.41503906 0.77352539 40.41503906 1.11352539 C25.89503906 1.44352539 11.37503906 1.77352539 -3.58496094 2.11352539 C-0.61496094 2.60852539 -0.61496094 2.60852539 2.41503906 3.11352539 C2.41503906 3.77352539 2.41503906 4.43352539 2.41503906 5.11352539 C1.75503906 5.11352539 1.09503906 5.11352539 0.41503906 5.11352539 C0.41503906 6.43352539 0.41503906 7.75352539 0.41503906 9.11352539 C-3.54496094 9.11352539 -7.50496094 9.11352539 -11.58496094 9.11352539 C-11.25496094 7.46352539 -10.92496094 5.81352539 -10.58496094 4.11352539 C-11.24496094 3.78352539 -11.90496094 3.45352539 -12.58496094 3.11352539 C-8.34596614 0.84263532 -4.80305914 -0.01349174 0 0 Z " fill="#7835CC" transform="translate(461.5849609375,658.886474609375)"/>
<path d="M0 0 C0.66 0.33 1.32 0.66 2 1 C2 1.99 2 2.98 2 4 C2.66 4 3.32 4 4 4 C4 4.66 4 5.32 4 6 C4.59296875 6.26425781 5.1859375 6.52851563 5.796875 6.80078125 C8.08029054 8.04370425 9.47426723 9.30401646 11.25 11.1875 C14.40458882 14.45086774 17.72554996 17.41001087 21.203125 20.32421875 C23.07674426 22.07157236 24.52511967 23.9105862 26 26 C22.25983417 26 21.54723807 25.0658409 18.8125 22.625 C18.09707031 21.99851562 17.38164062 21.37203125 16.64453125 20.7265625 C15 19 15 19 15 17 C14.34 17 13.68 17 13 17 C13 16.34 13 15.68 13 15 C12.34 15 11.68 15 11 15 C11 14.34 11 13.68 11 13 C10.4225 12.855625 9.845 12.71125 9.25 12.5625 C8.5075 12.376875 7.765 12.19125 7 12 C6.34 11.9175 5.68 11.835 5 11.75 C1.86615202 10.57480701 0.69748427 8.82914045 -1 6 C-0.75 2.6875 -0.75 2.6875 0 0 Z " fill="#6727B9" transform="translate(465,407)"/>
<path d="M0 0 C0 3 0 3 -1 6 C-1.66 6 -2.32 6 -3 6 C-3 6.66 -3 7.32 -3 8 C-3.66 8 -4.32 8 -5 8 C-5 8.99 -5 9.98 -5 11 C-5.99 11.66 -6.98 12.32 -8 13 C-8 13.99 -8 14.98 -8 16 C-8.33 16.66 -8.66 17.32 -9 18 C-9 19.32 -9 20.64 -9 22 C-9.66 22 -10.32 22 -11 22 C-11 22.66 -11 23.32 -11 24 C-11.66 24 -12.32 24 -13 24 C-13.33 25.32 -13.66 26.64 -14 28 C-15.60029091 25.55249626 -16.00316286 24.1423285 -15.9375 21.1875 C-14.76387467 17.19717389 -12.87195677 14.02405417 -10 11 C-9.34 11 -8.68 11 -8 11 C-8 10.34 -8 9.68 -8 9 C-7.34 9 -6.68 9 -6 9 C-5.34 7.35 -4.68 5.7 -4 4 C-3.34 4 -2.68 4 -2 4 C-1.34 2.68 -0.68 1.36 0 0 Z " fill="#6A28BD" transform="translate(543,496)"/>
<path d="M0 0 C1.14192783 1.14192783 2.28322385 2.28449238 3.421875 3.4296875 C4.56801177 4.57015032 5.72586815 5.69887306 6.890625 6.8203125 C7.52484375 7.43648437 8.1590625 8.05265625 8.8125 8.6875 C9.41707031 9.26886719 10.02164063 9.85023438 10.64453125 10.44921875 C12 12 12 12 12 14 C12.66 14.33 13.32 14.66 14 15 C13.01 15.495 13.01 15.495 12 16 C12.33 16.99 12.66 17.98 13 19 C12.34 19 11.68 19 11 19 C11 18.34 11 17.68 11 17 C10.34 17 9.68 17 9 17 C9 16.01 9 15.02 9 14 C7.68 13.67 6.36 13.34 5 13 C5 14.32 5 15.64 5 17 C4.34 17 3.68 17 3 17 C3 16.34 3 15.68 3 15 C1.68 15 0.36 15 -1 15 C-1 13.68 -1 12.36 -1 11 C0.65 11 2.3 11 4 11 C4.33 9.68 4.66 8.36 5 7 C4.34 7 3.68 7 3 7 C0 2.61538462 0 2.61538462 0 0 Z " fill="#7125CF" transform="translate(593,541)"/>
<path d="M0 0 C1.91015625 0.31640625 1.91015625 0.31640625 4.91015625 1.44140625 C4.91015625 2.10140625 4.91015625 2.76140625 4.91015625 3.44140625 C5.57015625 3.44140625 6.23015625 3.44140625 6.91015625 3.44140625 C6.91015625 4.76140625 6.91015625 6.08140625 6.91015625 7.44140625 C6.25015625 7.44140625 5.59015625 7.44140625 4.91015625 7.44140625 C4.91015625 8.10140625 4.91015625 8.76140625 4.91015625 9.44140625 C4.25015625 9.44140625 3.59015625 9.44140625 2.91015625 9.44140625 C2.91015625 8.78140625 2.91015625 8.12140625 2.91015625 7.44140625 C1.92015625 7.44140625 0.93015625 7.44140625 -0.08984375 7.44140625 C-0.41984375 8.10140625 -0.74984375 8.76140625 -1.08984375 9.44140625 C-1.74984375 9.44140625 -2.40984375 9.44140625 -3.08984375 9.44140625 C-3.08984375 8.78140625 -3.08984375 8.12140625 -3.08984375 7.44140625 C-3.74984375 7.44140625 -4.40984375 7.44140625 -5.08984375 7.44140625 C-5.08984375 8.10140625 -5.08984375 8.76140625 -5.08984375 9.44140625 C-5.74984375 9.44140625 -6.40984375 9.44140625 -7.08984375 9.44140625 C-7.08984375 10.10140625 -7.08984375 10.76140625 -7.08984375 11.44140625 C-8.07984375 11.11140625 -9.06984375 10.78140625 -10.08984375 10.44140625 C-3.52930563 0.74544212 -3.52930563 0.74544212 0 0 Z " fill="#7228CD" transform="translate(485.08984375,462.55859375)"/>
<path d="M0 0 C0.66 0.33 1.32 0.66 2 1 C2.58964491 9.84467367 -0.29622898 18.0633478 -4 26 C-4.66 26 -5.32 26 -6 26 C-6.33 26.99 -6.66 27.98 -7 29 C-7 27.35 -7 25.7 -7 24 C-7.66 24 -8.32 24 -9 24 C-9 22.68 -9 21.36 -9 20 C-8.34 20 -7.68 20 -7 20 C-7 19.34 -7 18.68 -7 18 C-6.01 17.67 -5.02 17.34 -4 17 C-3.67 15.35 -3.34 13.7 -3 12 C-2.67 12 -2.34 12 -2 12 C-1.34 8.04 -0.68 4.08 0 0 Z " fill="#7328CD" transform="translate(475,574)"/>
<path d="M0 0 C1.03253906 0.00676758 1.03253906 0.00676758 2.0859375 0.01367188 C3.76566335 0.02533664 5.44534375 0.04326729 7.125 0.0625 C3.67470399 3.51279601 -1.38668182 2.47738353 -6.078125 2.62109375 C-10.00769109 3.07792602 -12.44871592 4.16182466 -15.875 6.0625 C-16.535 6.0625 -17.195 6.0625 -17.875 6.0625 C-17.875 6.7225 -17.875 7.3825 -17.875 8.0625 C-18.865 8.0625 -19.855 8.0625 -20.875 8.0625 C-21.535 9.3825 -22.195 10.7025 -22.875 12.0625 C-23.535 12.0625 -24.195 12.0625 -24.875 12.0625 C-24.875 12.7225 -24.875 13.3825 -24.875 14.0625 C-25.535 14.0625 -26.195 14.0625 -26.875 14.0625 C-26.875 14.7225 -26.875 15.3825 -26.875 16.0625 C-27.865 15.7325 -28.855 15.4025 -29.875 15.0625 C-29.215 15.0625 -28.555 15.0625 -27.875 15.0625 C-27.7925 14.485 -27.71 13.9075 -27.625 13.3125 C-26.649018 10.38455399 -25.23988777 9.01005463 -22.875 7.0625 C-21.885 7.0625 -20.895 7.0625 -19.875 7.0625 C-19.875 6.4025 -19.875 5.7425 -19.875 5.0625 C-19.215 5.0625 -18.555 5.0625 -17.875 5.0625 C-17.875 4.4025 -17.875 3.7425 -17.875 3.0625 C-16.555 3.0625 -15.235 3.0625 -13.875 3.0625 C-13.875 2.4025 -13.875 1.7425 -13.875 1.0625 C-9.21962644 0.14157719 -4.72814567 -0.05955997 0 0 Z " fill="#6E28C1" transform="translate(405.875,532.9375)"/>
<path d="M0 0 C8.09763586 2.72309879 15.2948285 6.67733809 22 12 C22 12.66 22 13.32 22 14 C20.68 13.67 19.36 13.34 18 13 C18 12.34 18 11.68 18 11 C17.34 11 16.68 11 16 11 C16.66 12.98 17.32 14.96 18 17 C17.34 17 16.68 17 16 17 C16 16.34 16 15.68 16 15 C13.36 14.34 10.72 13.68 8 13 C9 11 9 11 12 10 C12 9.01 12 8.02 12 7 C10.68 7 9.36 7 8 7 C8 6.34 8 5.68 8 5 C6.68 5 5.36 5 4 5 C4 4.34 4 3.68 4 3 C2.68 3 1.36 3 0 3 C0 2.01 0 1.02 0 0 Z " fill="#7227D1" transform="translate(432,303)"/>
<path d="M0 0 C0.96550781 0.00902344 1.93101562 0.01804687 2.92578125 0.02734375 C5.28412099 0.05069365 7.64192286 0.08343953 10 0.125 C10 0.785 10 1.445 10 2.125 C10.66 2.455 11.32 2.785 12 3.125 C-3.345 3.62 -3.345 3.62 -19 4.125 C-19 3.465 -19 2.805 -19 2.125 C-12.53546326 0.18868829 -6.72378423 -0.12056441 0 0 Z " fill="#6C2DB8" transform="translate(406,496.875)"/>
<path d="M0 0 C3.81201332 3.41074876 5.9866344 5.93317198 7 11 C6.625 14.875 6.625 14.875 6 18 C5.34 18 4.68 18 4 18 C3.34 15.36 2.68 12.72 2 10 C1.01 10.495 1.01 10.495 0 11 C-0.66 10.67 -1.32 10.34 -2 10 C-2.25 3.375 -2.25 3.375 0 0 Z " fill="#702AC6" transform="translate(534,556)"/>
<path d="M0 0 C2.85176445 2.85176445 2.37262338 5.09125072 2.5625 9.0625 C2.38816898 13.35226365 2.38816898 13.35226365 4 17 C4.144375 18.051875 4.28875 19.10375 4.4375 20.1875 C4.9530323 23.68166337 5.79042981 26.69384149 7 30 C7.33 29.01 7.66 28.02 8 27 C8.66 27 9.32 27 10 27 C9.34 30.3 8.68 33.6 8 37 C0.52183395 25.78275092 -0.19553154 13.03543567 0 0 Z " fill="#6626B6" transform="translate(336,363)"/>
<path d="M0 0 C0.66 0.33 1.32 0.66 2 1 C0.88368586 2.83863505 -0.24329627 4.67079723 -1.375 6.5 C-2.00148438 7.5209375 -2.62796875 8.541875 -3.2734375 9.59375 C-3.84320312 10.3878125 -4.41296875 11.181875 -5 12 C-5.66 12 -6.32 12 -7 12 C-7.20625 12.66 -7.4125 13.32 -7.625 14 C-9.51152871 18.11606263 -12.20567979 21.4587703 -15 25 C-16 23 -16 23 -15.0625 19.375 C-13.29830343 14.86649767 -10.43272107 12.15202589 -6.9375 8.89453125 C-4.45916632 6.47116062 -2.79847024 3.9494912 -1 1 C-0.67 0.67 -0.34 0.34 0 0 Z " fill="#000000" transform="translate(590,443)"/>
<path d="M0 0 C3.465 1.98 3.465 1.98 7 4 C5.75 5.5 5.75 5.5 4 7 C2.68 7 1.36 7 0 7 C0 7.66 0 8.32 0 9 C-1.98 9 -3.96 9 -6 9 C-6 8.34 -6 7.68 -6 7 C-7.32 7 -8.64 7 -10 7 C-10 6.34 -10 5.68 -10 5 C-9.34 5 -8.68 5 -8 5 C-8 4.34 -8 3.68 -8 3 C-6.8553125 3.2784375 -6.8553125 3.2784375 -5.6875 3.5625 C-2.91032625 4.22819173 -2.91032625 4.22819173 0 3 C0 2.01 0 1.02 0 0 Z " fill="#6E25C8" transform="translate(588,659)"/>
<path d="M0 0 C1.65 0.33 3.3 0.66 5 1 C5 2.98 5 4.96 5 7 C5.66 7 6.32 7 7 7 C7 7.66 7 8.32 7 9 C6.34 9 5.68 9 5 9 C5 9.66 5 10.32 5 11 C5.66 11 6.32 11 7 11 C7 11.66 7 12.32 7 13 C8.32 13 9.64 13 11 13 C10.67 13.99 10.34 14.98 10 16 C8.68 15.34 7.36 14.68 6 14 C6 13.34 6 12.68 6 12 C5.34 12 4.68 12 4 12 C4 11.34 4 10.68 4 10 C2.68 9.34 1.36 8.68 0 8 C0 7.34 0 6.68 0 6 C-0.66 6 -1.32 6 -2 6 C-2 5.34 -2 4.68 -2 4 C-2.66 3.67 -3.32 3.34 -4 3 C-3.01 3 -2.02 3 -1 3 C-0.67 2.01 -0.34 1.02 0 0 Z " fill="#6925BE" transform="translate(623,609)"/>
<path d="M0 0 C0.66 0 1.32 0 2 0 C2.020625 0.680625 2.04125 1.36125 2.0625 2.0625 C3.46274066 6.44992074 6.55681072 9.04187896 10 12 C10.66 12.33 11.32 12.66 12 13 C12 13.66 12 14.32 12 15 C12.66 15 13.32 15 14 15 C14 15.66 14 16.32 14 17 C15.65 16.67 17.3 16.34 19 16 C18.01 18.475 18.01 18.475 17 21 C13.92748873 20.67080236 13.0664519 20.07683501 11 17.6875 C10.34 16.800625 9.68 15.91375 9 15 C6.83584313 12.76603162 4.61721683 10.65282456 2.3125 8.5625 C-0.0972298 5.89225887 -0.80298569 4.54625749 -1 1 C-0.67 0.67 -0.34 0.34 0 0 Z " fill="#000000" transform="translate(485,400)"/>
<path d="M0 0 C1.15564453 -0.020625 2.31128906 -0.04125 3.50195312 -0.0625 C10.49698757 -0.09427756 15.94457709 0.61679754 22.4375 3.25 C22.4375 3.91 22.4375 4.57 22.4375 5.25 C16.4975 4.59 10.5575 3.93 4.4375 3.25 C4.4375 2.92 4.4375 2.59 4.4375 2.25 C-2.4925 1.755 -2.4925 1.755 -9.5625 1.25 C-9.5625 1.91 -9.5625 2.57 -9.5625 3.25 C-11.2125 3.25 -12.8625 3.25 -14.5625 3.25 C-14.5625 2.59 -14.5625 1.93 -14.5625 1.25 C-10.30485335 -0.87882332 -4.67635832 0.02038739 0 0 Z " fill="#7029C5" transform="translate(407.5625,298.75)"/>
<path d="M0 0 C0.96070434 2.88211302 1.10581883 4.69850044 1.0625 7.6875 C1.05347656 8.49574219 1.04445313 9.30398438 1.03515625 10.13671875 C1.02355469 10.75160156 1.01195312 11.36648438 1 12 C2.32 11.67 3.64 11.34 5 11 C4.67 12.98 4.34 14.96 4 17 C5.32 17 6.64 17 8 17 C8.33 18.98 8.66 20.96 9 23 C8.34 23.33 7.68 23.66 7 24 C7 23.34 7 22.68 7 22 C6.34 22 5.68 22 5 22 C5 21.34 5 20.68 5 20 C4.34 20 3.68 20 3 20 C3 19.34 3 18.68 3 18 C2.34 18 1.68 18 1 18 C-2.20744106 12.09830845 -2.35951606 7.57099431 -1 1 C-0.67 0.67 -0.34 0.34 0 0 Z " fill="#6D26C5" transform="translate(448,663)"/>
<path d="M0 0 C0.66 0.66 1.32 1.32 2 2 C-5.24299065 10.41121495 -5.24299065 10.41121495 -8.8125 13.1875 C-11.24717721 14.95233991 -11.24717721 14.95233991 -12.5625 18.1875 C-14 21 -14 21 -16.1875 21.875 C-16.785625 21.91625 -17.38375 21.9575 -18 22 C-16.7069803 15.49385324 -12.48106831 12.02423277 -7.875 7.625 C-6.74384766 6.52091797 -6.74384766 6.52091797 -5.58984375 5.39453125 C-3.73530635 3.58694417 -1.87207871 1.7893841 0 0 Z " fill="#7F2BDE" transform="translate(526,417)"/>
<path d="M0 0 C1.32 0.33 2.64 0.66 4 1 C4 1.66 4 2.32 4 3 C4.99 3.33 5.98 3.66 7 4 C7 4.66 7 5.32 7 6 C7.66 6 8.32 6 9 6 C9 4.68 9 3.36 9 2 C10.32 2 11.64 2 13 2 C13 3.32 13 4.64 13 6 C13.66 6 14.32 6 15 6 C15 6.66 15 7.32 15 8 C14.38125 8.12375 13.7625 8.2475 13.125 8.375 C10.80879168 8.87197356 10.80879168 8.87197356 9 11 C7.49403892 9.54782324 5.99537896 8.08807139 4.5 6.625 C3.6646875 5.81289063 2.829375 5.00078125 1.96875 4.1640625 C0 2 0 2 0 0 Z " fill="#6F25D2" transform="translate(489,720)"/>
<path d="M0 0 C2.76276177 0.52268466 5.3260876 1.10869587 8 2 C10.01018861 5.86083844 11.12945267 9.73136379 10.6875 14.0625 C10.3471875 15.0215625 10.3471875 15.0215625 10 16 C8.35173889 13.03312999 7.55728913 10.34373475 7 7 C6.67 7.99 6.34 8.98 6 10 C5.34 10 4.68 10 4 10 C3.67 8.35 3.34 6.7 3 5 C2.01 5.33 1.02 5.66 0 6 C0 4.02 0 2.04 0 0 Z " fill="#7025D2" transform="translate(466,346)"/>
<path d="M0 0 C1.32 0 2.64 0 4 0 C4 0.66 4 1.32 4 2 C5.27875 2.185625 6.5575 2.37125 7.875 2.5625 C8.59429687 2.66691406 9.31359375 2.77132812 10.0546875 2.87890625 C12.08140667 3.1684297 12.08140667 3.1684297 14 2 C14.66 2.33 15.32 2.66 16 3 C16 4.65 16 6.3 16 8 C17.98 8 19.96 8 22 8 C21.67 8.99 21.34 9.98 21 11 C13.43557246 8.55522304 6.52728901 5.60166796 0 1 C0 0.67 0 0.34 0 0 Z " fill="#762FCD" transform="translate(368,624)"/>
<path d="M0 0 C0.99 0 1.98 0 3 0 C3 0.66 3 1.32 3 2 C4.32 2 5.64 2 7 2 C7 1.34 7 0.68 7 0 C7.66 0 8.32 0 9 0 C9 1.32 9 2.64 9 4 C8.34 4 7.68 4 7 4 C7 4.66 7 5.32 7 6 C6.34 6 5.68 6 5 6 C4.67 6.99 4.34 7.98 4 9 C2.51719804 8.21516341 1.0388502 7.42190666 -0.4375 6.625 C-1.26121094 6.18414062 -2.08492188 5.74328125 -2.93359375 5.2890625 C-5 4 -5 4 -6 2 C-5.01 2 -4.02 2 -3 2 C-3 2.66 -3 3.32 -3 4 C-1.68 4 -0.36 4 1 4 C0.67 2.68 0.34 1.36 0 0 Z " fill="#7324D2" transform="translate(375,426)"/>
<path d="M0 0 C-1.3255581 3.62276315 -2.94346955 6.63505348 -5.125 9.8125 C-5.66382813 10.60269531 -6.20265625 11.39289063 -6.7578125 12.20703125 C-7.16773438 12.79871094 -7.57765625 13.39039063 -8 14 C-8.66 13.67 -9.32 13.34 -10 13 C-10 11 -10 11 -9 10 C-9.40929986 7.94603274 -9.40929986 7.94603274 -10 6 C-9.34 6 -8.68 6 -8 6 C-7.7525 5.195625 -7.505 4.39125 -7.25 3.5625 C-6 1 -6 1 -4 0.1875 C-2 0 -2 0 0 0 Z " fill="#6C28C8" transform="translate(590,415)"/>
<path d="M0 0 C0.98033203 -0.01224609 1.96066406 -0.02449219 2.97070312 -0.03710938 C3.90720703 -0.03904297 4.84371094 -0.04097656 5.80859375 -0.04296875 C6.67154053 -0.04707764 7.5344873 -0.05118652 8.42358398 -0.05541992 C10.5625 0.1875 10.5625 0.1875 12.5625 2.1875 C8.7209024 4.75530471 4.7485825 4.41438882 0.3125 4.3125 C-0.43257813 4.30347656 -1.17765625 4.29445313 -1.9453125 4.28515625 C-3.77618059 4.26168358 -5.60688238 4.22581525 -7.4375 4.1875 C-7.4375 3.5275 -7.4375 2.8675 -7.4375 2.1875 C-8.7575 1.8575 -10.0775 1.5275 -11.4375 1.1875 C-9.07794489 -1.17205511 -3.16997174 0.00207595 0 0 Z " fill="#652CAE" transform="translate(407.4375,401.8125)"/>
<path d="M0 0 C1.32 0 2.64 0 4 0 C4 0.66 4 1.32 4 2 C4.66 2 5.32 2 6 2 C6 2.66 6 3.32 6 4 C5.34 4 4.68 4 4 4 C4 4.66 4 5.32 4 6 C4.66 6 5.32 6 6 6 C5.125 9.875 5.125 9.875 4 11 C5.65 11 7.3 11 9 11 C8.67 11.66 8.34 12.32 8 13 C3.70057465 12.52228607 1.7064865 11.38310813 -1 8 C-1.75 5.75 -1.75 5.75 -2 4 C-1.34 4 -0.68 4 0 4 C0 4.66 0 5.32 0 6 C0.66 6 1.32 6 2 6 C2 4.68 2 3.36 2 2 C1.34 2 0.68 2 0 2 C0 1.34 0 0.68 0 0 Z " fill="#7529D0" transform="translate(462,448)"/>
<path d="M0 0 C0.625 1.8125 0.625 1.8125 1 4 C0.01 5.485 0.01 5.485 -1 7 C-1.66 7 -2.32 7 -3 7 C-3.10183594 7.57234375 -3.20367188 8.1446875 -3.30859375 8.734375 C-4.12291016 11.40275646 -5.34673122 13.05965688 -7.0625 15.25 C-7.61035156 15.95640625 -8.15820312 16.6628125 -8.72265625 17.390625 C-9.14417969 17.92171875 -9.56570313 18.4528125 -10 19 C-10.33 18.01 -10.66 17.02 -11 16 C-10.67 15.34 -10.34 14.68 -10 14 C-9.34 14 -8.68 14 -8 14 C-6.98617037 10.3791799 -6.50102309 6.72188582 -6 3 C-5.195625 2.690625 -4.39125 2.38125 -3.5625 2.0625 C-1.10919595 1.23664655 -1.10919595 1.23664655 0 0 Z " fill="#6726B6" transform="translate(606,390)"/>
<path d="M0 0 C-0.99 0.33 -1.98 0.66 -3 1 C-3 1.66 -3 2.32 -3 3 C-4.32 3.33 -5.64 3.66 -7 4 C-7.33 5.65 -7.66 7.3 -8 9 C-9.32 9.33 -10.64 9.66 -12 10 C-11.67 10.99 -11.34 11.98 -11 13 C-10.34 13 -9.68 13 -9 13 C-9 13.66 -9 14.32 -9 15 C-10.65 15 -12.3 15 -14 15 C-14 14.01 -14 13.02 -14 12 C-14.66 11.34 -15.32 10.68 -16 10 C-14.68 9.34 -13.36 8.68 -12 8 C-12 7.34 -12 6.68 -12 6 C-11.34 6 -10.68 6 -10 6 C-10 5.34 -10 4.68 -10 4 C-9.34 4 -8.68 4 -8 4 C-8 3.34 -8 2.68 -8 2 C-4.77208445 -0.1519437 -3.71599191 -0.20086443 0 0 Z " fill="#6C2ABF" transform="translate(639,305)"/>
<path d="M0 0 C0.66 0 1.32 0 2 0 C2 0.66 2 1.32 2 2 C2.66 2 3.32 2 4 2 C4 2.66 4 3.32 4 4 C5.32 4 6.64 4 8 4 C8 4.66 8 5.32 8 6 C7.34 6 6.68 6 6 6 C6 6.66 6 7.32 6 8 C5.34 8 4.68 8 4 8 C3.67 9.32 3.34 10.64 3 12 C1 10.625 1 10.625 -1 9 C-1 8.34 -1 7.68 -1 7 C-1.66 6.67 -2.32 6.34 -3 6 C-2.505 5.566875 -2.01 5.13375 -1.5 4.6875 C0.33218192 3.00259517 0.33218192 3.00259517 0 0 Z " fill="#6E23C8" transform="translate(552,538)"/>
<path d="M0 0 C1.98 0 3.96 0 6 0 C6 0.66 6 1.32 6 2 C4.68 2 3.36 2 2 2 C2 2.66 2 3.32 2 4 C1.34 4 0.68 4 0 4 C-0.33 4.99 -0.66 5.98 -1 7 C-3.64 6.34 -6.28 5.68 -9 5 C-9 4.67 -9 4.34 -9 4 C-13.29 3.67 -17.58 3.34 -22 3 C-22 2.67 -22 2.34 -22 2 C-14.74 2 -7.48 2 0 2 C0 1.34 0 0.68 0 0 Z " fill="#7730CC" transform="translate(420,530)"/>
<path d="M0 0 C1.32 0.33 2.64 0.66 4 1 C3.68863537 7.07161025 0.64625533 11.33859404 -3 16 C-3.33 16 -3.66 16 -4 16 C-4 13.36 -4 10.72 -4 8 C-3.01 8 -2.02 8 -1 8 C-0.67 7.34 -0.34 6.68 0 6 C-0.66 6 -1.32 6 -2 6 C-2 4.68 -2 3.36 -2 2 C-1.34 2 -0.68 2 0 2 C0 1.34 0 0.68 0 0 Z " fill="#7627D1" transform="translate(616,370)"/>
<path d="M0 0 C0.99 0.33 1.98 0.66 3 1 C2.34 1 1.68 1 1 1 C0.7525 1.556875 0.505 2.11375 0.25 2.6875 C-1.22924818 5.42410913 -2.93467439 7.67650869 -5 10 C-5.66 10 -6.32 10 -7 10 C-7.33 10.99 -7.66 11.98 -8 13 C-10.29013653 9.5647952 -10.17842973 8.014669 -10 4 C-7.36 4 -4.72 4 -2 4 C-2 3.01 -2 2.02 -2 1 C-1.34 0.67 -0.68 0.34 0 0 Z " fill="#6926BE" transform="translate(588,686)"/>
<path d="M0 0 C0.99 0.66 1.98 1.32 3 2 C3 2.99 3 3.98 3 5 C9.93 5.33 16.86 5.66 24 6 C24 6.33 24 6.66 24 7 C14.1 7 4.2 7 -6 7 C-5.67 5.35 -5.34 3.7 -5 2 C-3.35 2 -1.7 2 0 2 C0 1.34 0 0.68 0 0 Z " fill="#7C34D1" transform="translate(397,432)"/>
<path d="M0 0 C0.99 0.33 1.98 0.66 3 1 C2.04882866 2.1725131 1.08882991 3.33787015 0.125 4.5 C-0.67550781 5.47453125 -0.67550781 5.47453125 -1.4921875 6.46875 C-1.98976563 6.9740625 -2.48734375 7.479375 -3 8 C-3.66 8 -4.32 8 -5 8 C-5 8.66 -5 9.32 -5 10 C-6.65002828 11.35386936 -8.3174387 12.68678142 -10 14 C-10.33 14.66 -10.66 15.32 -11 16 C-11.66 16 -12.32 16 -13 16 C-13 16.66 -13 17.32 -13 18 C-13.66 17.67 -14.32 17.34 -15 17 C-12.59509597 12.45177799 -9.4632867 9.22648405 -5.8125 5.6875 C-5.25369141 5.13771484 -4.69488281 4.58792969 -4.11914062 4.02148438 C-2.75062588 2.67636304 -1.37593167 1.33753357 0 0 Z " fill="#812EE0" transform="translate(575,366)"/>
<path d="M0 0 C1 2 1 2 0.5 4.8125 C-1.25857593 8.54947385 -2.99266087 9.73776365 -6.44140625 11.82421875 C-8.31785162 13.00871371 -8.31785162 13.00871371 -9 16 C-9.66 16 -10.32 16 -11 16 C-11 16.66 -11 17.32 -11 18 C-11.66 18 -12.32 18 -13 18 C-13 18.66 -13 19.32 -13 20 C-13.99 19.67 -14.98 19.34 -16 19 C-15.43152344 18.38253906 -14.86304688 17.76507813 -14.27734375 17.12890625 C-9.2433136 11.60744079 -4.48772121 5.9740083 0 0 Z " fill="#6428AE" transform="translate(501,442)"/>
<path d="M0 0 C1.32 0 2.64 0 4 0 C4.20086443 3.71599191 4.1519437 4.77208445 2 8 C1.34 8 0.68 8 0 8 C-0.2475 9.051875 -0.495 10.10375 -0.75 11.1875 C-1.76700786 14.8133541 -3.45373429 17.19910772 -6 20 C-6 15.59676006 -5.20410534 14.61473275 -3 11 C-2.65939189 9.33480481 -2.32441604 7.66842534 -2 6 C-1.34 5.67 -0.68 5.34 0 5 C0 3.35 0 1.7 0 0 Z " fill="#7825DB" transform="translate(596,396)"/>
<path d="M0 0 C0.66 0 1.32 0 2 0 C2 0.66 2 1.32 2 2 C2.66 2 3.32 2 4 2 C4 2.66 4 3.32 4 4 C4.66 4 5.32 4 6 4 C6 3.34 6 2.68 6 2 C6.99 2 7.98 2 9 2 C7.96706853 4.82572058 7.32047018 5.82978305 4.6171875 7.265625 C3.71226562 7.59046875 2.80734375 7.9153125 1.875 8.25 C0.96492187 8.58515625 0.05484375 8.9203125 -0.8828125 9.265625 C-1.58148437 9.50796875 -2.28015625 9.7503125 -3 10 C-3.33 9.34 -3.66 8.68 -4 8 C-3.34 8 -2.68 8 -2 8 C-2 6.68 -2 5.36 -2 4 C-1.34 4 -0.68 4 0 4 C0 2.68 0 1.36 0 0 Z " fill="#6B25C0" transform="translate(566,700)"/>
<path d="M0 0 C0.99 0.33 1.98 0.66 3 1 C1.71937515 2.7074998 0.38232443 4.37373596 -1 6 C-1.66 6 -2.32 6 -3 6 C-3 6.66 -3 7.32 -3 8 C-3.66 8 -4.32 8 -5 8 C-5 8.66 -5 9.32 -5 10 C-6.75 11.7265625 -6.75 11.7265625 -9 13.625 C-9.7425 14.25664062 -10.485 14.88828125 -11.25 15.5390625 C-11.8275 16.02117187 -12.405 16.50328125 -13 17 C-13.33 16.01 -13.66 15.02 -14 14 C-9.38 9.38 -4.76 4.76 0 0 Z " fill="#7E2CDA" transform="translate(617,322)"/>
<path d="M0 0 C1.31070939 3.93212817 0.6692647 5.22601025 -1 9 C-2.78982168 11.54666056 -4.63499433 13.96597477 -7 16 C-7.99 16 -8.98 16 -10 16 C-10 16.66 -10 17.32 -10 18 C-11.32 17.67 -12.64 17.34 -14 17 C-13.32453125 16.443125 -12.6490625 15.88625 -11.953125 15.3125 C-6.42502272 10.58325643 -2.7107144 6.77678599 0 0 Z " fill="#6C2BBF" transform="translate(440,576)"/>
<path d="M0 0 C0.33 0 0.66 0 1 0 C2.46584939 7.0849387 2.46584939 7.0849387 0.25 11.4375 C-2 14 -2 14 -5 15 C-5 13.35 -5 11.7 -5 10 C-4.34 10 -3.68 10 -3 10 C-3 8.02 -3 6.04 -3 4 C-2.01 4 -1.02 4 0 4 C0 2.68 0 1.36 0 0 Z " fill="#782BDD" transform="translate(597,668)"/>
<path d="M0 0 C0.99 0 1.98 0 3 0 C3 0.66 3 1.32 3 2 C3.99 2 4.98 2 6 2 C6 1.34 6 0.68 6 0 C6.66 0 7.32 0 8 0 C8 0.66 8 1.32 8 2 C8.66 2 9.32 2 10 2 C10 2.66 10 3.32 10 4 C10.66 4 11.32 4 12 4 C12 4.66 12 5.32 12 6 C11.34 6 10.68 6 10 6 C10 7.32 10 8.64 10 10 C8 10 8 10 6.4921875 8.5390625 C5.95851563 7.90742188 5.42484375 7.27578125 4.875 6.625 C4.06675781 5.68527344 4.06675781 5.68527344 3.2421875 4.7265625 C2 3 2 3 2 1 C1.34 0.67 0.68 0.34 0 0 Z " fill="#6526B4" transform="translate(430,344)"/>
<path d="M0 0 C-1.2419607 3.43927579 -2.55740284 6.25207819 -5 9 C-5.66 9 -6.32 9 -7 9 C-7 9.66 -7 10.32 -7 11 C-7.66 11 -8.32 11 -9 11 C-9 11.66 -9 12.32 -9 13 C-9.66 13 -10.32 13 -11 13 C-11 13.66 -11 14.32 -11 15 C-11.66 15 -12.32 15 -13 15 C-11.71076197 9.96025135 -9.83315723 7.46809464 -6 4 C-5.278125 3.236875 -4.55625 2.47375 -3.8125 1.6875 C-2 0 -2 0 0 0 Z " fill="#000000" transform="translate(478,618)"/>
<path d="M0 0 C2 2 2 2 2.16015625 4.5390625 C2.12792969 5.55742188 2.09570312 6.57578125 2.0625 7.625 C1.97347515 12.55104186 2.2517009 17.13605585 3 22 C2.34 22 1.68 22 1 22 C-1.11004083 17.68817743 -1.23884723 14.07845645 -1.1875 9.3125 C-1.18685547 8.63638672 -1.18621094 7.96027344 -1.18554688 7.26367188 C-1.1409337 2.2818674 -1.1409337 2.2818674 0 0 Z " fill="#5F2AA5" transform="translate(373,556)"/>
<path d="M0 0 C0.99 0 1.98 0 3 0 C3 0.66 3 1.32 3 2 C3.66 2 4.32 2 5 2 C5 2.66 5 3.32 5 4 C5.66 4 6.32 4 7 4 C7 4.66 7 5.32 7 6 C7.66 6 8.32 6 9 6 C9 6.66 9 7.32 9 8 C9.639375 8.226875 10.27875 8.45375 10.9375 8.6875 C13 10 13 10 13.75 12.625 C13.87375 13.800625 13.87375 13.800625 14 15 C3.75285171 6.42585551 3.75285171 6.42585551 0 2 C0 1.34 0 0.68 0 0 Z " fill="#532495" transform="translate(471,702)"/>
<path d="M0 0 C2.31 0 4.62 0 7 0 C5.4169423 4.2742558 2.49431596 6.26531794 -1 9 C-1.33 6.69 -1.66 4.38 -2 2 C-1.34 2 -0.68 2 0 2 C0 1.34 0 0.68 0 0 Z " fill="#6F26C1" transform="translate(454,612)"/>
<path d="M0 0 C3.93774177 -0.36630156 5.56539771 -0.30233203 8.875 2 C9.926875 2.99 9.926875 2.99 11 4 C10.360625 4.12375 9.72125 4.2475 9.0625 4.375 C8.381875 4.58125 7.70125 4.7875 7 5 C6.67 5.66 6.34 6.32 6 7 C5.236875 6.690625 4.47375 6.38125 3.6875 6.0625 C1.81210323 5.32106407 -0.08684652 4.63771783 -2 4 C-1.34 2.68 -0.68 1.36 0 0 Z " fill="#6D24CC" transform="translate(544,496)"/>
<path d="M0 0 C1.98 0 3.96 0 6 0 C6 1.32 6 2.64 6 4 C5.34 4 4.68 4 4 4 C4 5.32 4 6.64 4 8 C1.03824877 7.38722388 -0.38058783 6.74627478 -3 5 C-3 4.01 -3 3.02 -3 2 C-2.01 2 -1.02 2 0 2 C0 1.34 0 0.68 0 0 Z " fill="#6F29CD" transform="translate(362,418)"/>
<path d="M0 0 C0.99 0.33 1.98 0.66 3 1 C3 1.66 3 2.32 3 3 C3.66 3 4.32 3 5 3 C5 3.66 5 4.32 5 5 C6.32 5 7.64 5 9 5 C9 5.66 9 6.32 9 7 C9.66 7 10.32 7 11 7 C11 9.31 11 11.62 11 14 C5.59328677 10.5015385 3.04855104 5.4894871 0 0 Z " fill="#6426B6" transform="translate(347,407)"/>
<path d="M0 0 C3.73890956 1.58117437 6.32706163 3.89703399 9.25 6.6875 C10.14203125 7.51636719 11.0340625 8.34523438 11.953125 9.19921875 C14.52493599 12.71828073 14.4656903 14.73285954 14 19 C13.67 19.66 13.34 20.32 13 21 C12.34 21 11.68 21 11 21 C11.226875 19.741875 11.45375 18.48375 11.6875 17.1875 C11.75555901 13.29576196 11.05940867 12.07305277 8.55078125 8.98828125 C6.56950462 6.97834239 4.50349035 5.07539016 2.40625 3.1875 C1.6121875 2.465625 0.818125 1.74375 0 1 C0 0.67 0 0.34 0 0 Z " fill="#6F26CA" transform="translate(641,594)"/>
<path d="M0 0 C0.99 0.495 0.99 0.495 2 1 C2.73075648 3.3140622 3.40138258 5.64828869 4 8 C4.33 8 4.66 8 5 8 C5.02725341 9.7290774 5.04650987 11.45828176 5.0625 13.1875 C5.07410156 14.15042969 5.08570313 15.11335938 5.09765625 16.10546875 C5.00486622 18.85576513 4.62111685 21.32479591 4 24 C3.67 24 3.34 24 3 24 C2.95101563 23.08476562 2.90203125 22.16953125 2.8515625 21.2265625 C2.77679688 20.03804688 2.70203125 18.84953125 2.625 17.625 C2.55539062 16.44164062 2.48578125 15.25828125 2.4140625 14.0390625 C2.29782654 10.89437681 2.29782654 10.89437681 0 9 C-0.1953125 6.8359375 -0.1953125 6.8359375 -0.125 4.375 C-0.10695313 3.55773437 -0.08890625 2.74046875 -0.0703125 1.8984375 C-0.04710937 1.27195312 -0.02390625 0.64546875 0 0 Z " fill="#852DEC" transform="translate(472,352)"/>
<path d="M0 0 C0.66 0 1.32 0 2 0 C2.66 2.31 3.32 4.62 4 7 C4.66 6.34 5.32 5.68 6 5 C6 7.64 6 10.28 6 13 C4.68 12.67 3.36 12.34 2 12 C1.67 10.35 1.34 8.7 1 7 C0.01 7.495 0.01 7.495 -1 8 C-1.125 2.25 -1.125 2.25 0 0 Z " fill="#6F27C9" transform="translate(338,351)"/>
<path d="M0 0 C0.66 0.33 1.32 0.66 2 1 C2.42765417 7.41481258 0.85743168 12.88595404 -1 19 C-1.66 19 -2.32 19 -3 19 C-3 16.69 -3 14.38 -3 12 C-2.67 12 -2.34 12 -2 12 C-1.34 8.04 -0.68 4.08 0 0 Z " fill="#6E28BE" transform="translate(475,574)"/>
<path d="M0 0 C3.10652645 0.3358407 4.60414303 0.59049279 6.8125 2.875 C8 5 8 5 8 8 C4.64405503 7.4213888 3.35999139 6.35999139 1 4 C0.01 4 -0.98 4 -2 4 C-1.34 2.68 -0.68 1.36 0 0 Z " fill="#000000" transform="translate(432,449)"/>
<path d="M0 0 C0.556875 0.226875 1.11375 0.45375 1.6875 0.6875 C-3.8717383 5.60031524 -7.62991075 8.04482973 -15.3125 7.6875 C-12.85507744 4.00136616 -11.43537634 3.9809514 -7.3125 2.6875 C-6.013125 1.8521875 -6.013125 1.8521875 -4.6875 1 C-2.3125 -0.3125 -2.3125 -0.3125 0 0 Z " fill="#7830D2" transform="translate(427.3125,594.3125)"/>
<path d="M0 0 C4.39584798 6.59377197 2.89641641 14.49768417 2 22 C0.33325679 19.08175756 -0.2432008 17.02405621 -0.1953125 13.671875 C-0.18886719 12.87265625 -0.18242188 12.0734375 -0.17578125 11.25 C-0.15902344 10.425 -0.14226563 9.6 -0.125 8.75 C-0.11597656 7.90953125 -0.10695313 7.0690625 -0.09765625 6.203125 C-0.07415817 4.13529396 -0.03828908 2.06761005 0 0 Z " fill="#6C29B3" transform="translate(540,580)"/>
<path d="M0 0 C0.33 0 0.66 0 1 0 C1 3.96 1 7.92 1 12 C1.66 12 2.32 12 3 12 C3 12.66 3 13.32 3 14 C2.34 14 1.68 14 1 14 C1.061875 15.423125 1.061875 15.423125 1.125 16.875 C1 20 1 20 -1 22 C-1.0270817 19.27076612 -1.04687847 16.54180363 -1.0625 13.8125 C-1.07087891 13.04357422 -1.07925781 12.27464844 -1.08789062 11.48242188 C-1.10491934 7.51473211 -0.98604115 3.87428766 0 0 Z " fill="#7C28E5" transform="translate(505,578)"/>
<path d="M0 0 C0.99 0.33 1.98 0.66 3 1 C2.34 1 1.68 1 1 1 C1 1.66 1 2.32 1 3 C0.34 3 -0.32 3 -1 3 C-1.2475 3.61875 -1.495 4.2375 -1.75 4.875 C-3.22246063 7.37818306 -4.41028837 7.83045281 -7 9 C-7.33 9.66 -7.66 10.32 -8 11 C-8 10.01 -8 9.02 -8 8 C-8.66 8 -9.32 8 -10 8 C-10 7.34 -10 6.68 -10 6 C-8.68 6 -7.36 6 -6 6 C-6 5.34 -6 4.68 -6 4 C-3.1875 1.8125 -3.1875 1.8125 0 0 Z " fill="#652AAD" transform="translate(546,730)"/>
<path d="M0 0 C2.97 0.495 2.97 0.495 6 1 C1.40144929 4.71421404 -2.92491435 7.53603697 -9 7 C-9.33 6.34 -9.66 5.68 -10 5 C-9.36191406 4.80664062 -8.72382813 4.61328125 -8.06640625 4.4140625 C-7.24011719 4.15367187 -6.41382813 3.89328125 -5.5625 3.625 C-4.32693359 3.24214844 -4.32693359 3.24214844 -3.06640625 2.8515625 C-0.82201984 2.19117773 -0.82201984 2.19117773 0 0 Z " fill="#7B2ADE" transform="translate(438,626)"/>
<path d="M0 0 C1.32 0 2.64 0 4 0 C4 0.66 4 1.32 4 2 C4.66 2 5.32 2 6 2 C6 2.66 6 3.32 6 4 C6.66 4 7.32 4 8 4 C8 4.66 8 5.32 8 6 C8.66 6 9.32 6 10 6 C10 6.66 10 7.32 10 8 C10.66 8 11.32 8 12 8 C12 8.66 12 9.32 12 10 C12.66 10 13.32 10 14 10 C13.67 10.99 13.34 11.98 13 13 C10.8303243 11.02404535 8.66418031 9.04445723 6.5 7.0625 C5.87996094 6.49853516 5.25992188 5.93457031 4.62109375 5.35351562 C3.06178382 3.92272025 1.52862521 2.46353265 0 1 C0 0.67 0 0.34 0 0 Z " fill="#4F228C" transform="translate(582,576)"/>
<path d="M0 0 C2.20322582 3.5496416 2.2686389 6.49648471 2.25 10.625 C2.25515625 11.77226562 2.2603125 12.91953125 2.265625 14.1015625 C2 17 2 17 0 19 C-1.81187842 17.18812158 -1.13234462 14.7302249 -1.13671875 12.32226562 C-1.13285156 11.57654297 -1.12898438 10.83082031 -1.125 10.0625 C-1.12886719 9.32064453 -1.13273437 8.57878906 -1.13671875 7.81445312 C-1.12663501 2.25327002 -1.12663501 2.25327002 0 0 Z " fill="#652CAC" transform="translate(373,360)"/>
<path d="M0 0 C4.45588832 1.48529611 6.76642609 5.0642601 9 9 C9.76953125 11.1015625 9.76953125 11.1015625 10 13 C9.34 13.66 8.68 14.32 8 15 C8 13.68 8 12.36 8 11 C7.34 11 6.68 11 6 11 C6 9.68 6 8.36 6 7 C5.34 7 4.68 7 4 7 C4 6.34 4 5.68 4 5 C3.34 5 2.68 5 2 5 C2 4.34 2 3.68 2 3 C0.02 3.99 0.02 3.99 -2 5 C-1.34 3.35 -0.68 1.7 0 0 Z " fill="#6E2EC5" transform="translate(458,321)"/>
<path d="M0 0 C0 0.66 0 1.32 0 2 C0.66 2 1.32 2 2 2 C2 2.66 2 3.32 2 4 C2.66 4 3.32 4 4 4 C4 4.66 4 5.32 4 6 C2 7.625 2 7.625 0 9 C0 8.01 0 7.02 0 6 C-0.66 6 -1.32 6 -2 6 C-2 5.34 -2 4.68 -2 4 C-2.66 4 -3.32 4 -4 4 C-4 3.34 -4 2.68 -4 2 C-4.66 1.67 -5.32 1.34 -6 1 C-4 0 -4 0 0 0 Z " fill="#7825DE" transform="translate(596,580)"/>
<path d="M0 0 C0.66 0.33 1.32 0.66 2 1 C2 1.66 2 2.32 2 3 C2.66 3 3.32 3 4 3 C4 3.66 4 4.32 4 5 C2.02 5 0.04 5 -2 5 C-2 5.66 -2 6.32 -2 7 C-2.66 7 -3.32 7 -4 7 C-4 7.66 -4 8.32 -4 9 C-4.66 9 -5.32 9 -6 9 C-6.33 9.66 -6.66 10.32 -7 11 C-6.68232368 5.59950264 -3.80003673 3.47662935 0 0 Z " fill="#7928D5" transform="translate(358,517)"/>
<path d="M0 0 C0.99 0.33 1.98 0.66 3 1 C-1 5 -5 9 -9 13 C-9.66 12.34 -10.32 11.68 -11 11 C-7.37 7.37 -3.74 3.74 0 0 Z " fill="#7C2EDE" transform="translate(475,474)"/>
<path d="M0 0 C0.66 0 1.32 0 2 0 C2.99 2.31 3.98 4.62 5 7 C4.01 7.495 4.01 7.495 3 8 C3 7.34 3 6.68 3 6 C1.02 6 -0.96 6 -3 6 C-3.33 6.66 -3.66 7.32 -4 8 C-5 7 -5 7 -5.0625 4.4375 C-5.041875 3.633125 -5.02125 2.82875 -5 2 C-3.33333333 2 -1.66666667 2 0 2 C0 1.34 0 0.68 0 0 Z " fill="#6624BA" transform="translate(375,384)"/>
<path d="M0 0 C0.99 0 1.98 0 3 0 C3.35281338 4.1970092 2.64185432 6.06522073 0 9.3125 C-0.556875 10.00988281 -1.11375 10.70726562 -1.6875 11.42578125 C-2.120625 11.94527344 -2.55375 12.46476562 -3 13 C-4.23593891 9.29218328 -3.5678132 8.32489747 -2.0625 4.8125 C-1.68222656 3.91144531 -1.30195312 3.01039063 -0.91015625 2.08203125 C-0.60980469 1.39496094 -0.30945313 0.70789063 0 0 Z " fill="#6C2ACA" transform="translate(635,346)"/>
<path d="M0 0 C0.33 1.32 0.66 2.64 1 4 C1.33 3.34 1.66 2.68 2 2 C2.66 2 3.32 2 4 2 C4 4.64 4 7.28 4 10 C3.34 10 2.68 10 2 10 C2 9.34 2 8.68 2 8 C0.68 8.33 -0.64 8.66 -2 9 C-3 6 -3 6 -1.5625 2.8125 C-1.046875 1.884375 -0.53125 0.95625 0 0 Z " fill="#6D23C2" transform="translate(342,340)"/>
<path d="M0 0 C2.97 1.65 5.94 3.3 9 5 C9 5.66 9 6.32 9 7 C8.01 7 7.02 7 6 7 C6 7.66 6 8.32 6 9 C4.68 9 3.36 9 2 9 C2 7.02 2 5.04 2 3 C1.34 3 0.68 3 0 3 C0 2.01 0 1.02 0 0 Z " fill="#6C2BC2" transform="translate(384,395)"/>
<path d="M0 0 C0.99 0.33 1.98 0.66 3 1 C2.67 1.66 2.34 2.32 2 3 C1.34 3 0.68 3 0 3 C0 3.66 0 4.32 0 5 C-0.66 5 -1.32 5 -2 5 C-2.226875 5.5775 -2.45375 6.155 -2.6875 6.75 C-4.33038023 9.5663661 -6.39533227 11.08077114 -9 13 C-9 12.01 -9 11.02 -9 10 C-8.34 10 -7.68 10 -7 10 C-7 9.34 -7 8.68 -7 8 C-6.34 8 -5.68 8 -5 8 C-5 6.68 -5 5.36 -5 4 C-4.01 4 -3.02 4 -2 4 C-1.34 2.68 -0.68 1.36 0 0 Z " fill="#682CB2" transform="translate(559,716)"/>
<path d="M0 0 C3.21524305 1.40844718 5.32183868 3.10344786 7.75 5.625 C8.67039062 6.57246094 8.67039062 6.57246094 9.609375 7.5390625 C10.29773438 8.26222656 10.29773438 8.26222656 11 9 C10.34 9.66 9.68 10.32 9 11 C7.0625 10.25 7.0625 10.25 5 9 C4.25 6.875 4.25 6.875 4 5 C3.34 5 2.68 5 2 5 C2 4.34 2 3.68 2 3 C1.34 3 0.68 3 0 3 C0 2.01 0 1.02 0 0 Z " fill="#6225A9" transform="translate(616,567)"/>
<path d="M0 0 C0.66 0 1.32 0 2 0 C2 1.65 2 3.3 2 5 C1.195625 5.268125 0.39125 5.53625 -0.4375 5.8125 C-1.283125 6.204375 -2.12875 6.59625 -3 7 C-3.33 7.99 -3.66 8.98 -4 10 C-5.32 10 -6.64 10 -8 10 C-8 9.34 -8 8.68 -8 8 C-7.34 8 -6.68 8 -6 8 C-5.9175 7.38125 -5.835 6.7625 -5.75 6.125 C-5 4 -5 4 -3 2.875 C-2.34 2.58625 -1.68 2.2975 -1 2 C-0.67 1.34 -0.34 0.68 0 0 Z " fill="#772DD9" transform="translate(436,390)"/>
<path d="M0 0 C0.61875 0.474375 1.2375 0.94875 1.875 1.4375 C3.90705546 3.02417441 3.90705546 3.02417441 6 4 C6 5.32 6 6.64 6 8 C5.34 8 4.68 8 4 8 C4 8.99 4 9.98 4 11 C3.01 10.67 2.02 10.34 1 10 C0.234375 7.96875 0.234375 7.96875 -0.25 5.5 C-0.42015625 4.6853125 -0.5903125 3.870625 -0.765625 3.03125 C-0.84296875 2.3609375 -0.9203125 1.690625 -1 1 C-0.67 0.67 -0.34 0.34 0 0 Z " fill="#6A25B6" transform="translate(340,582)"/>
<path d="M0 0 C-0.33 1.65 -0.66 3.3 -1 5 C-1.86625 5.226875 -2.7325 5.45375 -3.625 5.6875 C-7.61778814 7.24025095 -9.84248305 9.14319895 -13 12 C-11.60609461 8.84280428 -9.96365028 6.7187347 -7.5 4.3125 C-6.8915625 3.71050781 -6.283125 3.10851562 -5.65625 2.48828125 C-3.70055766 0.73092563 -2.65294241 0 0 0 Z " fill="#5C21AA" transform="translate(368,312)"/>
<path d="M0 0 C5.28 0 10.56 0 16 0 C15.01 0.495 15.01 0.495 14 1 C14 1.66 14 2.32 14 3 C9.71 3 5.42 3 1 3 C0.67 2.01 0.34 1.02 0 0 Z " fill="#822AE9" transform="translate(400,634)"/>
<path d="M0 0 C1.43859375 0.00580078 1.43859375 0.00580078 2.90625 0.01171875 C5.5 0.3125 5.5 0.3125 8.5 2.3125 C4.66275828 3.21663673 1.12497726 3.41826898 -2.8125 3.375 C-3.88113281 3.36597656 -4.94976562 3.35695313 -6.05078125 3.34765625 C-6.85902344 3.33605469 -7.66726563 3.32445312 -8.5 3.3125 C-5.95054848 0.0481685 -4.04282137 -0.0706407 0 0 Z " fill="#59239D" transform="translate(408.5,598.6875)"/>
<path d="M0 0 C0.66 1.32 1.32 2.64 2 4 C0.88200014 5.33920838 -0.24461897 6.67122556 -1.375 8 C-2.31472656 9.11375 -2.31472656 9.11375 -3.2734375 10.25 C-3.84320312 10.8275 -4.41296875 11.405 -5 12 C-5.66 12 -6.32 12 -7 12 C-6.6875 10.0625 -6.6875 10.0625 -6 8 C-5.01 7.67 -4.02 7.34 -3 7 C-1.62665383 4.71108972 -0.84749184 2.54247553 0 0 Z " fill="#6F2EC9" transform="translate(651,613)"/>
<path d="M0 0 C0 0.66 0 1.32 0 2 C-0.99 2 -1.98 2 -3 2 C-3.66 3.32 -4.32 4.64 -5 6 C-5.66 6 -6.32 6 -7 6 C-7 6.66 -7 7.32 -7 8 C-7.66 8 -8.32 8 -9 8 C-9 8.66 -9 9.32 -9 10 C-9.99 9.67 -10.98 9.34 -12 9 C-11.34 9 -10.68 9 -10 9 C-9.9175 8.4225 -9.835 7.845 -9.75 7.25 C-8.7766189 4.3298567 -7.32386725 2.98212207 -5 1 C-2 0 -2 0 0 0 Z " fill="#6229AF" transform="translate(388,539)"/>
<path d="M0 0 C-5.94 3.465 -5.94 3.465 -12 7 C-12.33 5.35 -12.66 3.7 -13 2 C-11.02 2 -9.04 2 -7 2 C-7 1.34 -7 0.68 -7 0 C-3.98968256 -0.93423645 -3.13349732 -1.04449911 0 0 Z " fill="#6126AA" transform="translate(513,518)"/>
<path d="M0 0 C4.09274885 1.57413417 7.35956013 4.54102377 10 8 C10 8.99 10 9.98 10 11 C9.01 10.67 8.02 10.34 7 10 C6.67 9.34 6.34 8.68 6 8 C5.01 7.67 4.02 7.34 3 7 C3 5.68 3 4.36 3 3 C2.01 2.67 1.02 2.34 0 2 C0 1.34 0 0.68 0 0 Z " fill="#000000" transform="translate(584,508)"/>
<path d="M0 0 C0.66 0.66 1.32 1.32 2 2 C1.625 4.125 1.625 4.125 1 6 C1 5.34 1 4.68 1 4 C0.01 4 -0.98 4 -2 4 C-2 4.99 -2 5.98 -2 7 C-3.25 8.75 -3.25 8.75 -5 10 C-6.32 9.67 -7.64 9.34 -9 9 C-6.03 6.03 -3.06 3.06 0 0 Z " fill="#551F96" transform="translate(557,384)"/>
<path d="M0 0 C0.66 0 1.32 0 2 0 C2.33 0.99 2.66 1.98 3 3 C3.66 3.33 4.32 3.66 5 4 C4.67 5.98 4.34 7.96 4 10 C3.34 9.01 2.68 8.02 2 7 C-0.05925139 6.27617533 -0.05925139 6.27617533 -2 6 C-2 2 -2 2 0 0 Z " fill="#7829DC" transform="translate(468,340)"/>
<path d="M0 0 C0.99 0.33 1.98 0.66 3 1 C4.1875 4.0625 4.1875 4.0625 5 7 C4.01 6.67 3.02 6.34 2 6 C2 5.01 2 4.02 2 3 C1.67 3.66 1.34 4.32 1 5 C0.01 5 -0.98 5 -2 5 C-2 6.32 -2 7.64 -2 9 C-2.66 9 -3.32 9 -4 9 C-4 7.35 -4 5.7 -4 4 C-3.34 4 -2.68 4 -2 4 C-2 3.01 -2 2.02 -2 1 C-1.34 0.67 -0.68 0.34 0 0 Z " fill="#6C25C2" transform="translate(468,337)"/>
<path d="M0 0 C0 2.31 0 4.62 0 7 C-0.66 7 -1.32 7 -2 7 C-2 6.34 -2 5.68 -2 5 C-2.66 5 -3.32 5 -4 5 C-4 6.98 -4 8.96 -4 11 C-4.33 11 -4.66 11 -5 11 C-5 7.7 -5 4.4 -5 1 C-2 0 -2 0 0 0 Z " fill="#782ECA" transform="translate(510,567)"/>
<path d="M0 0 C0.99 0.495 0.99 0.495 2 1 C2 1.66 2 2.32 2 3 C2.59296875 3.24492187 3.1859375 3.48984375 3.796875 3.7421875 C6.36698726 5.20952109 7.54529966 6.72292225 9.25 9.125 C9.77078125 9.84945312 10.2915625 10.57390625 10.828125 11.3203125 C11.40820312 12.15175781 11.40820312 12.15175781 12 13 C11.01 13 10.02 13 9 13 C9 12.34 9 11.68 9 11 C8.34 11 7.68 11 7 11 C7 10.34 7 9.68 7 9 C6.34 9 5.68 9 5 9 C5 8.34 5 7.68 5 7 C4.34 7 3.68 7 3 7 C3 6.34 3 5.68 3 5 C2.34 5 1.68 5 1 5 C0.67 3.35 0.34 1.7 0 0 Z " fill="#572599" transform="translate(561,507)"/>
<path d="M0 0 C1.32 0 2.64 0 4 0 C4.33 0.66 4.66 1.32 5 2 C5.66 2 6.32 2 7 2 C6.34 3.32 5.68 4.64 5 6 C2.69 6 0.38 6 -2 6 C-2 5.34 -2 4.68 -2 4 C-1.34 4 -0.68 4 0 4 C0 2.68 0 1.36 0 0 Z " fill="#6D24C8" transform="translate(562,444)"/>
<path d="M0 0 C0.5534764 2.07553648 1 3.84365964 1 6 C-2 8 -2 8 -5 8 C-5.33 8.66 -5.66 9.32 -6 10 C-6.66 9.34 -7.32 8.68 -8 8 C-7.34 8 -6.68 8 -6 8 C-5.7525 7.4225 -5.505 6.845 -5.25 6.25 C-3.83316683 3.6997003 -2.12372463 1.98214299 0 0 Z " fill="#5A229F" transform="translate(587,352)"/>
<path d="M0 0 C1.06671952 3.20015856 0.94845472 4.88544294 0.5625 8.1875 C0.46066406 9.08855469 0.35882813 9.98960937 0.25390625 10.91796875 C0.17011719 11.60503906 0.08632813 12.29210937 0 13 C0.66 13 1.32 13 2 13 C2.33 14.32 2.66 15.64 3 17 C2.34 17.33 1.68 17.66 1 18 C-2.20744106 12.09830845 -2.35951606 7.57099431 -1 1 C-0.67 0.67 -0.34 0.34 0 0 Z " fill="#6527B6" transform="translate(448,663)"/>
<path d="M0 0 C2.64 0 5.28 0 8 0 C7.67 0.99 7.34 1.98 7 3 C2.545 3.495 2.545 3.495 -2 4 C-2 3.34 -2 2.68 -2 2 C-1.34 2 -0.68 2 0 2 C0 1.34 0 0.68 0 0 Z " fill="#7026CC" transform="translate(634,618)"/>
<path d="M0 0 C0.66 0 1.32 0 2 0 C2 0.66 2 1.32 2 2 C2.66 2 3.32 2 4 2 C4 2.66 4 3.32 4 4 C5.32 4.33 6.64 4.66 8 5 C7 6 7 6 5.15234375 6.09765625 C3.1015625 6.06510417 1.05078125 6.03255208 -1 6 C-1.625 4.125 -1.625 4.125 -2 2 C-1.34 1.34 -0.68 0.68 0 0 Z " fill="#7C2BD8" transform="translate(518,744)"/>
<path d="M0 0 C-1.40844718 3.21524305 -3.10344786 5.32183868 -5.625 7.75 C-6.57246094 8.67039062 -6.57246094 8.67039062 -7.5390625 9.609375 C-8.02117188 10.06828125 -8.50328125 10.5271875 -9 11 C-9.66 10.34 -10.32 9.68 -11 9 C-9.54782324 7.49403892 -8.08807139 5.99537896 -6.625 4.5 C-5.40683594 3.24703125 -5.40683594 3.24703125 -4.1640625 1.96875 C-2 0 -2 0 0 0 Z " fill="#7F2EE0" transform="translate(571,706)"/>
<path d="M0 0 C1.32 0 2.64 0 4 0 C4 0.66 4 1.32 4 2 C7.96 2 11.92 2 16 2 C16 2.33 16 2.66 16 3 C8.08 3.495 8.08 3.495 0 4 C0 2.68 0 1.36 0 0 Z " fill="#7926DF" transform="translate(396,600)"/>
<path d="M0 0 C-4.40639354 2.20319677 -6.97450871 3.10924981 -12 3 C-12 2.34 -12 1.68 -12 1 C-7.67265609 -1.22923777 -4.71599818 -0.92470553 0 0 Z " fill="#7029C2" transform="translate(426,634)"/>
<path d="M0 0 C0.66 0 1.32 0 2 0 C2.91657981 5.38490641 3.11138159 10.54230189 3 16 C2.34 15.67 1.68 15.34 1 15 C0.62109375 12.6015625 0.62109375 12.6015625 0.4375 9.625 C0.23313343 6.46357425 0.00622117 4.01866352 -1 1 C-0.67 0.67 -0.34 0.34 0 0 Z " fill="#521C9A" transform="translate(440,556)"/>
<path d="M0 0 C3.36179774 1.44077046 5.59156268 3.24750021 8 6 C8 6.66 8 7.32 8 8 C8.99 8.33 9.98 8.66 11 9 C10.01 9.33 9.02 9.66 8 10 C6.66070495 8.71451591 5.32871357 7.42141845 4 6.125 C2.88625 5.04605469 2.88625 5.04605469 1.75 3.9453125 C0 2 0 2 0 0 Z " fill="#7A32DB" transform="translate(541,534)"/>
<path d="M0 0 C0.66 0 1.32 0 2 0 C2 0.66 2 1.32 2 2 C3.32 1.34 4.64 0.68 6 0 C5.34 2.31 4.68 4.62 4 7 C3.34 6.34 2.68 5.68 2 5 C-0.10820797 5.3185177 -0.10820797 5.3185177 -2 6 C-2 5.34 -2 4.68 -2 4 C-1.34 4 -0.68 4 0 4 C0 2.68 0 1.36 0 0 Z " fill="#6E26C6" transform="translate(536,480)"/>
<path d="M0 0 C1.62433191 2.50076998 2.07333427 3.58982529 1.5390625 6.578125 C1.23742187 7.45984375 0.93578125 8.3415625 0.625 9.25 C0.32851563 10.14203125 0.03203125 11.0340625 -0.2734375 11.953125 C-0.51320313 12.62859375 -0.75296875 13.3040625 -1 14 C-1.33 14 -1.66 14 -2 14 C-2.05410687 12.22950311 -2.09284119 10.45853151 -2.125 8.6875 C-2.14820313 7.70136719 -2.17140625 6.71523438 -2.1953125 5.69921875 C-2 3 -2 3 0 0 Z " fill="#7A27DE" transform="translate(446,360)"/>
<path d="M0 0 C-0.33 1.98 -0.66 3.96 -1 6 C-1.33 5.34 -1.66 4.68 -2 4 C-2.99 4 -3.98 4 -5 4 C-7.1875 1.5 -7.1875 1.5 -9 -1 C-5.79937313 -2.60031344 -3.27728194 -1.03173691 0 0 Z " fill="#7A2BD9" transform="translate(435,340)"/>
<path d="M0 0 C2.475 0.495 2.475 0.495 5 1 C4.67 2.32 4.34 3.64 4 5 C4.99 5 5.98 5 7 5 C7 5.66 7 6.32 7 7 C5.68 7.33 4.36 7.66 3 8 C0 3.375 0 3.375 0 0 Z " fill="#752DCE" transform="translate(343,593)"/>
<path d="M0 0 C0.33 0 0.66 0 1 0 C1.09706112 6.11485027 0.77040851 11.93303301 0 18 C-0.33 18 -0.66 18 -1 18 C-1.33 13.05 -1.66 8.1 -2 3 C-1.34 3 -0.68 3 0 3 C0 2.01 0 1.02 0 0 Z " fill="#822BE3" transform="translate(540,571)"/>
<path d="M0 0 C1 2 1 2 0.1875 4.5625 C-1 7 -1 7 -3 8 C-3.33 8.99 -3.66 9.98 -4 11 C-5.65 10.67 -7.3 10.34 -9 10 C-8.01 9.67 -7.02 9.34 -6 9 C-6 8.34 -6 7.68 -6 7 C-5.34 7 -4.68 7 -4 7 C-4 6.34 -4 5.68 -4 5 C-3.34 5 -2.68 5 -2 5 C-1.855625 4.360625 -1.71125 3.72125 -1.5625 3.0625 C-1 1 -1 1 0 0 Z " fill="#7929DA" transform="translate(494,453)"/>
<path d="M0 0 C0.66 0 1.32 0 2 0 C1.125 3.875 1.125 3.875 0 5 C1.65 5 3.3 5 5 5 C4.67 5.66 4.34 6.32 4 7 C0.32579134 6.69381595 -0.78135513 6.24228216 -3.3125 3.4375 C-3.869375 2.633125 -4.42625 1.82875 -5 1 C-2.525 1.495 -2.525 1.495 0 2 C0 1.34 0 0.68 0 0 Z " fill="#5722A3" transform="translate(466,454)"/>
<path d="M0 0 C0.66 0 1.32 0 2 0 C2 0.66 2 1.32 2 2 C3.175625 1.9071875 3.175625 1.9071875 4.375 1.8125 C5.674375 1.9053125 5.674375 1.9053125 7 2 C7.99 3.485 7.99 3.485 9 5 C8 6 8 6 4.9375 6.0625 C3.968125 6.041875 2.99875 6.02125 2 6 C1.34 4.02 0.68 2.04 0 0 Z " fill="#792ADB" transform="translate(448,314)"/>
<path d="M0 0 C0.66 0 1.32 0 2 0 C4 3 4 3 4 6 C4.66 6 5.32 6 6 6 C6 6.66 6 7.32 6 8 C6.66 8 7.32 8 8 8 C8 8.66 8 9.32 8 10 C8.66 10 9.32 10 10 10 C9.67 10.66 9.34 11.32 9 12 C6.1875 11.0625 6.1875 11.0625 3 9 C1.59362918 6.09453062 0.74890884 3.13359225 0 0 Z " fill="#5F22A9" transform="translate(375,581)"/>
<path d="M0 0 C3.91939465 3.80411834 7.49102731 7.81576108 11 12 C9.68 11.67 8.36 11.34 7 11 C7 10.34 7 9.68 7 9 C6.34 9 5.68 9 5 9 C5 8.34 5 7.68 5 7 C4.34 7 3.68 7 3 7 C0 2.61538462 0 2.61538462 0 0 Z " fill="#562399" transform="translate(593,541)"/>
<path d="M0 0 C3.21043882 1.38188453 5.04936365 2.92421903 7.25 5.625 C8.03117187 6.57246094 8.03117187 6.57246094 8.828125 7.5390625 C9.40820312 8.26222656 9.40820312 8.26222656 10 9 C7 9 7 9 5.17578125 7.5390625 C4.56089844 6.90742188 3.94601562 6.27578125 3.3125 5.625 C2.68988281 4.99851562 2.06726563 4.37203125 1.42578125 3.7265625 C0 2 0 2 0 0 Z " fill="#471A80" transform="translate(481,424)"/>
<path d="M0 0 C0.64453125 1.765625 0.64453125 1.765625 1 4 C0.07421875 5.921875 0.07421875 5.921875 -1.3125 7.75 C-1.98732422 8.67039062 -1.98732422 8.67039062 -2.67578125 9.609375 C-3.11277344 10.06828125 -3.54976562 10.5271875 -4 11 C-4.66 11 -5.32 11 -6 11 C-6 10.01 -6 9.02 -6 8 C-5.34 8 -4.68 8 -4 8 C-4 6.68 -4 5.36 -4 4 C-2 1.75 -2 1.75 0 0 Z " fill="#7A33D5" transform="translate(630,356)"/>
<path d="M0 0 C0.66 0 1.32 0 2 0 C5.62870159 9.41002278 5.62870159 9.41002278 4 14 C1.51787516 9.39033958 0 5.27072485 0 0 Z " fill="#6F2BBD" transform="translate(472,348)"/>
<path d="M0 0 C0.66 0 1.32 0 2 0 C2 1.65 2 3.3 2 5 C-0.60582371 5.93065133 -1.64198224 6.14917407 -4.25 5.0625 C-4.8275 4.711875 -5.405 4.36125 -6 4 C-6 3.34 -6 2.68 -6 2 C-4.02 2 -2.04 2 0 2 C0 1.34 0 0.68 0 0 Z " fill="#762BE2" transform="translate(530,742)"/>
<path d="M0 0 C0.99 0 1.98 0 3 0 C3 0.66 3 1.32 3 2 C2.34 2 1.68 2 1 2 C1 2.66 1 3.32 1 4 C1.99 3.34 2.98 2.68 4 2 C4.99 2 5.98 2 7 2 C6 4 6 4 3 6 C1.68 6 0.36 6 -1 6 C-0.67 4.02 -0.34 2.04 0 0 Z " fill="#7825E1" transform="translate(387,596)"/>
<path d="M0 0 C0.33 0 0.66 0 1 0 C0.67 4.29 0.34 8.58 0 13 C-0.66 12.67 -1.32 12.34 -2 12 C-2.05395478 10.37536158 -2.09277195 8.75021459 -2.125 7.125 C-2.14820313 6.22007812 -2.17140625 5.31515625 -2.1953125 4.3828125 C-2 2 -2 2 0 0 Z " fill="#7D28E0" transform="translate(474,574)"/>
<path d="M0 0 C0.33 0.99 0.66 1.98 1 3 C0.67 3.66 0.34 4.32 0 5 C-0.22950319 7.204364 -0.41075933 9.41392173 -0.5625 11.625 C-0.64628906 12.81351563 -0.73007812 14.00203125 -0.81640625 15.2265625 C-0.87699219 16.14179687 -0.93757813 17.05703125 -1 18 C-1.33 18 -1.66 18 -2 18 C-2.24942657 15.75215576 -2.47383488 13.50152494 -2.6875 11.25 C-2.87892578 9.37054687 -2.87892578 9.37054687 -3.07421875 7.453125 C-2.99485632 3.76068358 -2.53835868 2.58403608 0 0 Z " fill="#7C2ADD" transform="translate(373,553)"/>
<path d="M0 0 C0 0.66 0 1.32 0 2 C-2.96178773 3.67110042 -5.37071192 4.32682752 -8.75 4.625 C-9.54921875 4.69976562 -10.3484375 4.77453125 -11.171875 4.8515625 C-12.07679688 4.92503906 -12.07679688 4.92503906 -13 5 C-9.31451808 1.31451808 -5.13149791 0 0 0 Z " fill="#7F31D9" transform="translate(440,431)"/>
<path d="M0 0 C0.99 0 1.98 0 3 0 C3 0.66 3 1.32 3 2 C5.31 2.33 7.62 2.66 10 3 C10 4.32 10 5.64 10 7 C8.51719804 6.21516341 7.0388502 5.42190666 5.5625 4.625 C4.73878906 4.18414062 3.91507812 3.74328125 3.06640625 3.2890625 C1 2 1 2 0 0 Z " fill="#672BB5" transform="translate(369,428)"/>
<path d="M0 0 C1.32 0.33 2.64 0.66 4 1 C4 1.66 4 2.32 4 3 C4.99 3.33 5.98 3.66 7 4 C6.67 5.32 6.34 6.64 6 8 C4.99403703 7.0479279 3.99538437 6.08812654 3 5.125 C2.443125 4.59132813 1.88625 4.05765625 1.3125 3.5078125 C0 2 0 2 0 0 Z " fill="#59259E" transform="translate(489,720)"/>
<path d="M0 0 C0.66 0 1.32 0 2 0 C2 1.32 2 2.64 2 4 C2.66 4 3.32 4 4 4 C4 5.32 4 6.64 4 8 C3.34 8 2.68 8 2 8 C2 7.34 2 6.68 2 6 C1.34 6 0.68 6 0 6 C0 5.34 0 4.68 0 4 C-0.66 4 -1.32 4 -2 4 C-2 3.34 -2 2.68 -2 2 C-1.34 2 -0.68 2 0 2 C0 1.34 0 0.68 0 0 Z " fill="#7826E1" transform="translate(468,692)"/>
<path d="M0 0 C4.31392226 0.4793247 6.16569547 1.7457985 9 5 C8.67 5.99 8.34 6.98 8 8 C5.95880212 6.38405168 3.95927063 4.7143618 2 3 C2 2.34 2 1.68 2 1 C1.34 0.67 0.68 0.34 0 0 Z " fill="#6B2BBE" transform="translate(457,688)"/>
<path d="M0 0 C0.99 0.33 1.98 0.66 3 1 C2 4 2 4 1 6 C1.66 6 2.32 6 3 6 C3 6.66 3 7.32 3 8 C1.68 8 0.36 8 -1 8 C-0.67 6.35 -0.34 4.7 0 3 C-0.66 2.67 -1.32 2.34 -2 2 C-1.34 1.34 -0.68 0.68 0 0 Z " fill="#6D29C8" transform="translate(451,660)"/>
<path d="M0 0 C0.99 0 1.98 0 3 0 C3.33 0.99 3.66 1.98 4 3 C4.66 3.66 5.32 4.32 6 5 C5.01 6.485 5.01 6.485 4 8 C2 6.25 2 6.25 0 4 C0 2.68 0 1.36 0 0 Z " fill="#742FCB" transform="translate(353,608)"/>
<path d="M0 0 C1.32 0.33 2.64 0.66 4 1 C4 1.66 4 2.32 4 3 C4.99 3 5.98 3 7 3 C7 3.66 7 4.32 7 5 C7.66 5 8.32 5 9 5 C9.33 5.99 9.66 6.98 10 8 C7 8 7 8 4.8125 6.125 C3 4 3 4 3 2 C2.01 1.67 1.02 1.34 0 1 C0 0.67 0 0.34 0 0 Z " fill="#491F83" transform="translate(573,567)"/>
<path d="M0 0 C0.33 1.32 0.66 2.64 1 4 C0.360625 4.268125 -0.27875 4.53625 -0.9375 4.8125 C-3.33131686 5.88667752 -3.33131686 5.88667752 -4 9 C-5.37245106 6.25509788 -4.93580311 4.87939419 -4 2 C-1.9375 0.6875 -1.9375 0.6875 0 0 Z " fill="#7D2DD8" transform="translate(538,484)"/>
<path d="M0 0 C1.8141927 0.28094582 3.62635001 0.57506433 5.4375 0.875 C6.95150391 1.11863281 6.95150391 1.11863281 8.49609375 1.3671875 C9.32238281 1.57601563 10.14867187 1.78484375 11 2 C11.33 2.66 11.66 3.32 12 4 C8.52128379 5.15957207 7.65780355 4.77456651 4.3125 3.5625 C3.50425781 3.27503906 2.69601562 2.98757813 1.86328125 2.69140625 C1.24839844 2.46324219 0.63351562 2.23507812 0 2 C0 1.34 0 0.68 0 0 Z " fill="#5E27B1" transform="translate(381,434)"/>
<path d="M0 0 C3.3 0.33 6.6 0.66 10 1 C10 1.99 10 2.98 10 4 C8.35 4.66 6.7 5.32 5 6 C4.67 5.34 4.34 4.68 4 4 C4.66 3.67 5.32 3.34 6 3 C4.02 2.34 2.04 1.68 0 1 C0 0.67 0 0.34 0 0 Z " fill="#7C2FDF" transform="translate(578,658)"/>
<path d="M0 0 C0.66 0.33 1.32 0.66 2 1 C-1.78756477 4.61139896 -1.78756477 4.61139896 -4 6 C-6.875 5.8125 -6.875 5.8125 -9 5 C-8.67 4.34 -8.34 3.68 -8 3 C-5.67793475 2.29508733 -3.34406932 1.62787571 -1 1 C-0.67 0.67 -0.34 0.34 0 0 Z " fill="#692AB7" transform="translate(450,621)"/>
<path d="M0 0 C0.99 0 1.98 0 3 0 C3 0.66 3 1.32 3 2 C4.32 2.33 5.64 2.66 7 3 C7 3.99 7 4.98 7 6 C7.66 6 8.32 6 9 6 C8.67 6.99 8.34 7.98 8 9 C6.62437146 7.71034824 5.29233607 6.37310707 4 5 C4 4.34 4 3.68 4 3 C3.34 3 2.68 3 2 3 C2 2.34 2 1.68 2 1 C1.34 0.67 0.68 0.34 0 0 Z " fill="#512390" transform="translate(505,738)"/>
<path d="M0 0 C1 3 1 3 0.00390625 5.26171875 C-0.47175781 6.06222656 -0.94742187 6.86273437 -1.4375 7.6875 C-1.91058594 8.49574219 -2.38367188 9.30398438 -2.87109375 10.13671875 C-3.24363281 10.75160156 -3.61617188 11.36648438 -4 12 C-5 9 -5 9 -4.2578125 6.9921875 C-3.88398438 6.29351563 -3.51015625 5.59484375 -3.125 4.875 C-2.75632812 4.17117188 -2.38765625 3.46734375 -2.0078125 2.7421875 C-1 1 -1 1 0 0 Z " fill="#6725BB" transform="translate(346,531)"/>
<path d="M0 0 C0.75 1.625 0.75 1.625 1 4 C-0.9375 7.25 -0.9375 7.25 -3 10 C-3.66 9.67 -4.32 9.34 -5 9 C-3.7508258 5.54074837 -2.32472205 2.85306797 0 0 Z " fill="#7934D8" transform="translate(594,406)"/>
<path d="M0 0 C1.26724763 3.80174289 0.4750819 5.3511132 -1 9 C-1.66 9.66 -2.32 10.32 -3 11 C-4.04449911 7.86650268 -3.93423645 7.01031744 -3 4 C-2.34 4 -1.68 4 -1 4 C-0.67 2.68 -0.34 1.36 0 0 Z " fill="#7F30DC" transform="translate(469,396)"/>
<path d="M0 0 C0.66 0.33 1.32 0.66 2 1 C0.515 6.445 0.515 6.445 -1 12 C-1.66 12 -2.32 12 -3 12 C-2.14285714 3.42857143 -2.14285714 3.42857143 0 0 Z " fill="#5F27B0" transform="translate(474,384)"/>
<path d="M0 0 C0.33 0 0.66 0 1 0 C1.19573608 1.43640171 1.38127816 2.87419504 1.5625 4.3125 C1.66691406 5.11300781 1.77132813 5.91351563 1.87890625 6.73828125 C2 9 2 9 1 12 C0.47007308 10.54494642 -0.0486789 9.08581873 -0.5625 7.625 C-0.85253906 6.81289063 -1.14257812 6.00078125 -1.44140625 5.1640625 C-2 3 -2 3 -1 1 C-0.67 0.67 -0.34 0.34 0 0 Z " fill="#792FDC" transform="translate(374,377)"/>
<path d="M0 0 C3.63 0 7.26 0 11 0 C11 0.66 11 1.32 11 2 C7.18243176 3.37432457 3.92744671 2.67975039 0 2 C0 1.34 0 0.68 0 0 Z " fill="#6027A7" transform="translate(405,334)"/>
<path d="M0 0 C-2.97 2.475 -2.97 2.475 -6 5 C-6.33 3.35 -6.66 1.7 -7 0 C-3.86650268 -1.04449911 -3.01031744 -0.93423645 0 0 Z " fill="#56209F" transform="translate(459,616)"/>
<path d="M0 0 C1.98 0 3.96 0 6 0 C6.33 0.99 6.66 1.98 7 3 C2.545 3.495 2.545 3.495 -2 4 C-1.34 2.68 -0.68 1.36 0 0 Z " fill="#7634CD" transform="translate(544,496)"/>
<path d="M0 0 C0 3.57575896 -1.08840607 5.05295935 -3 8 C-2.34 8.33 -1.68 8.66 -1 9 C-2.32 8.67 -3.64 8.34 -5 8 C-5 6.68 -5 5.36 -5 4 C-2.5 1.75 -2.5 1.75 0 0 Z " fill="#000000" transform="translate(566,477)"/>
<path d="M0 0 C0.66 0 1.32 0 2 0 C2 0.99 2 1.98 2 3 C1.34 3 0.68 3 0 3 C0 3.66 0 4.32 0 5 C-0.66 5 -1.32 5 -2 5 C-2.28875 5.639375 -2.5775 6.27875 -2.875 6.9375 C-4 9 -4 9 -6 10 C-4.34643078 6.41726669 -2.32019297 3.19026533 0 0 Z " fill="#6D2BC5" transform="translate(438,385)"/>
<path d="M0 0 C0.33 0.99 0.66 1.98 1 3 C1.66 3 2.32 3 3 3 C3 3.66 3 4.32 3 5 C3.66 5 4.32 5 5 5 C5 5.66 5 6.32 5 7 C3.35 7 1.7 7 0 7 C0 6.01 0 5.02 0 4 C-0.66 3.34 -1.32 2.68 -2 2 C-1.34 1.34 -0.68 0.68 0 0 Z " fill="#6522B2" transform="translate(625,313)"/>
<path d="M0 0 C1.48454806 0.59082014 2.96254351 1.19812655 4.4375 1.8125 C5.67306641 2.31716797 5.67306641 2.31716797 6.93359375 2.83203125 C9 4 9 4 10 7 C9.34 7 8.68 7 8 7 C8 6.34 8 5.68 8 5 C6.68 5 5.36 5 4 5 C4 4.34 4 3.68 4 3 C2.68 3 1.36 3 0 3 C0 2.01 0 1.02 0 0 Z " fill="#702CBC" transform="translate(432,303)"/>
<path d="M0 0 C4.6875 0.78125 4.6875 0.78125 9.375 1.5625 C10.674375 1.7790625 10.674375 1.7790625 12 2 C11.67 2.99 11.34 3.98 11 5 C7.37 3.68 3.74 2.36 0 1 C0 0.67 0 0.34 0 0 Z " fill="#6428B2" transform="translate(378,630)"/>
<path d="M0 0 C0.66 0 1.32 0 2 0 C2 0.66 2 1.32 2 2 C2.66 2 3.32 2 4 2 C4 2.66 4 3.32 4 4 C3.34 4 2.68 4 2 4 C2 4.66 2 5.32 2 6 C1.34 6 0.68 6 0 6 C0 5.34 0 4.68 0 4 C-0.66 4 -1.32 4 -2 4 C-2 3.34 -2 2.68 -2 2 C-1.34 2 -0.68 2 0 2 C0 1.34 0 0.68 0 0 Z " fill="#7925E3" transform="translate(630,616)"/>
<path d="M0 0 C0.66 0 1.32 0 2 0 C2 0.66 2 1.32 2 2 C1.34 2 0.68 2 0 2 C0 2.66 0 3.32 0 4 C0.66 4 1.32 4 2 4 C2 4.66 2 5.32 2 6 C3.32 6 4.64 6 6 6 C5.67 6.99 5.34 7.98 5 9 C3.68 8.34 2.36 7.68 1 7 C1 6.34 1 5.68 1 5 C0.34 5 -0.32 5 -1 5 C-0.67 3.35 -0.34 1.7 0 0 Z " fill="#6428AC" transform="translate(628,616)"/>
<path d="M0 0 C0.99 0.33 1.98 0.66 3 1 C3 1.66 3 2.32 3 3 C-1.455 4.485 -1.455 4.485 -6 6 C-4 4 -2 2 0 0 Z " fill="#632AB2" transform="translate(512,555)"/>
<path d="M0 0 C0.66 0 1.32 0 2 0 C2.66 0.99 3.32 1.98 4 3 C6.05925139 3.72382467 6.05925139 3.72382467 8 4 C5.525 5.485 5.525 5.485 3 7 C3 6.01 3 5.02 3 4 C2.01 4 1.02 4 0 4 C0 2.68 0 1.36 0 0 Z " fill="#6725BB" transform="translate(472,534)"/>
<path d="M0 0 C0.99 0.33 1.98 0.66 3 1 C3 2.65 3 4.3 3 6 C2.34 6 1.68 6 1 6 C0.67 5.34 0.34 4.68 0 4 C-0.99 4.495 -0.99 4.495 -2 5 C-2 3.68 -2 2.36 -2 1 C-1.34 0.67 -0.68 0.34 0 0 Z " fill="#742ED0" transform="translate(349,529)"/>
<path d="M0 0 C0.66 0.33 1.32 0.66 2 1 C1.67 2.32 1.34 3.64 1 5 C-0.65 5.33 -2.3 5.66 -4 6 C-4 4.68 -4 3.36 -4 2 C-2.68 2 -1.36 2 0 2 C0 1.34 0 0.68 0 0 Z " fill="#782BDC" transform="translate(454,498)"/>
<path d="M0 0 C0 3.10551666 -0.5393715 4.35261084 -2 7 C-2.66 7 -3.32 7 -4 7 C-4 7.66 -4 8.32 -4 9 C-4.99 8.67 -5.98 8.34 -7 8 C-4.69 5.36 -2.38 2.72 0 0 Z " fill="#532198" transform="translate(482,465)"/>
<path d="M0 0 C0.99 0.495 0.99 0.495 2 1 C2 1.66 2 2.32 2 3 C2.66 3 3.32 3 4 3 C4 3.66 4 4.32 4 5 C4.99 5.33 5.98 5.66 7 6 C6.01 6.66 5.02 7.32 4 8 C1.10067643 5.60490662 0.49831724 3.68754757 0 0 Z " fill="#792FDC" transform="translate(484,713)"/>
<path d="M0 0 C0.75 1.75 0.75 1.75 1 4 C-0.9375 6.25 -0.9375 6.25 -3 8 C-3.33 6.68 -3.66 5.36 -4 4 C-3.34 4 -2.68 4 -2 4 C-1.34 2.68 -0.68 1.36 0 0 Z " fill="#6629B4" transform="translate(466,602)"/>
<path d="M0 0 C2.31 1.98 4.62 3.96 7 6 C6.34 6.66 5.68 7.32 5 8 C2.5 5.6875 2.5 5.6875 0 3 C0 2.01 0 1.02 0 0 Z " fill="#7C33DC" transform="translate(556,548)"/>
<path d="M0 0 C2.8751945 1.28888029 5.0071564 2.53266983 7 5 C7.6875 7.1875 7.6875 7.1875 8 9 C7.34 9 6.68 9 6 9 C6 8.34 6 7.68 6 7 C5.34 7 4.68 7 4 7 C2.50475822 4.7272325 1.21600285 2.4320057 0 0 Z " fill="#6326B3" transform="translate(584,533)"/>
<path d="M0 0 C0.99 0 1.98 0 3 0 C3.33 2.31 3.66 4.62 4 7 C3.34 7 2.68 7 2 7 C2 6.34 2 5.68 2 5 C1.34 5 0.68 5 0 5 C0 3.35 0 1.7 0 0 Z " fill="#7029C4" transform="translate(554,501)"/>
<path d="M0 0 C2.97 0.33 5.94 0.66 9 1 C8.67 1.99 8.34 2.98 8 4 C5.69 3.67 3.38 3.34 1 3 C0.67 2.01 0.34 1.02 0 0 Z " fill="#792DDF" transform="translate(416,498)"/>
<path d="M0 0 C0.33 0.66 0.66 1.32 1 2 C-0.3125 4.625 -0.3125 4.625 -2 7 C-2.66 7 -3.32 7 -4 7 C-3.67 5.02 -3.34 3.04 -3 1 C-2.01 0.67 -1.02 0.34 0 0 Z " fill="#7D2EDC" transform="translate(555,461)"/>
<path d="M0 0 C1 2 1 2 0.0625 5.125 C-0.288125 6.07375 -0.63875 7.0225 -1 8 C-2.65 8 -4.3 8 -6 8 C-4.02 5.36 -2.04 2.72 0 0 Z " fill="#5D219E" transform="translate(501,442)"/>
<path d="M0 0 C0.99 0 1.98 0 3 0 C1.52307692 4.67692308 1.52307692 4.67692308 -1.125 6.3125 C-2.053125 6.6528125 -2.053125 6.6528125 -3 7 C-1.125 2.25 -1.125 2.25 0 0 Z " fill="#7E32E2" transform="translate(578,428)"/>
<path d="M0 0 C1.32 0 2.64 0 4 0 C3 2 2 4 1 6 C0.01 6 -0.98 6 -2 6 C-2 5.34 -2 4.68 -2 4 C-1.34 4 -0.68 4 0 4 C0 2.68 0 1.36 0 0 Z " fill="#7123E3" transform="translate(556,714)"/>
<path d="M0 0 C2.16874252 0.50603992 3.99967627 0.99983813 6 2 C6 2.66 6 3.32 6 4 C4.02 4 2.04 4 0 4 C0 2.68 0 1.36 0 0 Z " fill="#7D26DC" transform="translate(454,660)"/>
<path d="M0 0 C0.33 0 0.66 0 1 0 C1.125 6.75 1.125 6.75 0 9 C-0.66 9 -1.32 9 -2 9 C-1.125 1.125 -1.125 1.125 0 0 Z " fill="#5B24A1" transform="translate(654,606)"/>
<path d="M0 0 C1.65 1.65 3.3 3.3 5 5 C4.67 5.66 4.34 6.32 4 7 C3.34 7 2.68 7 2 7 C2 6.01 2 5.02 2 4 C1.34 4 0.68 4 0 4 C-0.33 3.01 -0.66 2.02 -1 1 C-0.67 0.67 -0.34 0.34 0 0 Z " fill="#6A2BB2" transform="translate(534,556)"/>
<path d="M0 0 C0.66 0 1.32 0 2 0 C2 1.32 2 2.64 2 4 C1.01 4.33 0.02 4.66 -1 5 C-1.66 5.66 -2.32 6.32 -3 7 C-3 5.35 -3 3.7 -3 2 C-2.01 2 -1.02 2 0 2 C0 1.34 0 0.68 0 0 Z " fill="#6C28C3" transform="translate(536,522)"/>
<path d="M0 0 C2.0625 0.4375 2.0625 0.4375 4 1 C4.33 2.65 4.66 4.3 5 6 C4.34 6 3.68 6 3 6 C3 5.34 3 4.68 3 4 C2.34 4 1.68 4 1 4 C1 3.34 1 2.68 1 2 C0.34 1.67 -0.32 1.34 -1 1 C-0.67 0.67 -0.34 0.34 0 0 Z " fill="#000000" transform="translate(448,465)"/>
<path d="M0 0 C0.66 0 1.32 0 2 0 C2 1.32 2 2.64 2 4 C1.34 4 0.68 4 0 4 C-0.33 5.32 -0.66 6.64 -1 8 C-1.625 5.6875 -1.625 5.6875 -2 3 C-1.34 2.01 -0.68 1.02 0 0 Z " fill="#7C25E1" transform="translate(344,386)"/>
<path d="M0 0 C0.33 0 0.66 0 1 0 C1.33 1.98 1.66 3.96 2 6 C1.34 6 0.68 6 0 6 C-0.33 7.32 -0.66 8.64 -1 10 C-2.25556424 6.09380015 -1.81588958 3.63177916 0 0 Z " fill="#7C35D5" transform="translate(474,378)"/>
<path d="M0 0 C0.99 0 1.98 0 3 0 C3.36923077 4.55384615 3.36923077 4.55384615 1.5 6.8125 C1.005 7.204375 0.51 7.59625 0 8 C0 5.36 0 2.72 0 0 Z " fill="#6728B4" transform="translate(612,378)"/>
<path d="M0 0 C0.99 0.495 0.99 0.495 2 1 C2.4140625 3.28515625 2.4140625 3.28515625 2.625 6.0625 C2.69976562 6.98160156 2.77453125 7.90070313 2.8515625 8.84765625 C2.92503906 9.91306641 2.92503906 9.91306641 3 11 C2.01 10.34 1.02 9.68 0 9 C-0.29296875 6.8359375 -0.29296875 6.8359375 -0.1875 4.375 C-0.16042969 3.55773437 -0.13335937 2.74046875 -0.10546875 1.8984375 C-0.05326172 0.95871094 -0.05326172 0.95871094 0 0 Z " fill="#802FDC" transform="translate(472,352)"/>
<path d="M0 0 C0.66 0 1.32 0 2 0 C2.68707555 2.49064888 3 4.37886292 3 7 C1.68 6.01 0.36 5.02 -1 4 C-0.67 2.68 -0.34 1.36 0 0 Z " fill="#7E2EDB" transform="translate(500,728)"/>
<path d="M0 0 C0.99 0 1.98 0 3 0 C3 0.66 3 1.32 3 2 C3.66 2 4.32 2 5 2 C5.33 2.99 5.66 3.98 6 5 C3 5 3 5 1.3125 3.625 C0 2 0 2 0 0 Z " fill="#4B2089" transform="translate(471,702)"/>
<path d="M0 0 C0.99 0 1.98 0 3 0 C3 0.99 3 1.98 3 3 C2.34 3 1.68 3 1 3 C1 3.66 1 4.32 1 5 C0.01 4.67 -0.98 4.34 -2 4 C-1.34 2.68 -0.68 1.36 0 0 Z " fill="#6B28C2" transform="translate(423,534)"/>
<path d="M0 0 C2.475 0.99 2.475 0.99 5 2 C5 2.99 5 3.98 5 5 C2.69 4.67 0.38 4.34 -2 4 C-2 3.34 -2 2.68 -2 2 C-1.34 2 -0.68 2 0 2 C0 1.34 0 0.68 0 0 Z " fill="#7A29DB" transform="translate(580,530)"/>
<path d="M0 0 C0.66 0 1.32 0 2 0 C2 0.99 2 1.98 2 3 C1.34 3 0.68 3 0 3 C0 3.66 0 4.32 0 5 C-0.66 5 -1.32 5 -2 5 C-2.33 5.66 -2.66 6.32 -3 7 C-2.25 2.25 -2.25 2.25 0 0 Z " fill="#772FCD" transform="translate(354,521)"/>
<path d="M0 0 C0.33 0.66 0.66 1.32 1 2 C0.3125 4.0625 0.3125 4.0625 -1 6 C-3.125 6.75 -3.125 6.75 -5 7 C-5 6.01 -5 5.02 -5 4 C-2.5 1.8125 -2.5 1.8125 0 0 Z " fill="#7A31D9" transform="translate(462,489)"/>
<path d="M0 0 C0.66 0 1.32 0 2 0 C2.66 1.65 3.32 3.3 4 5 C2.68 5.33 1.36 5.66 0 6 C0 4.02 0 2.04 0 0 Z " fill="#7C29DE" transform="translate(546,468)"/>
<path d="M0 0 C1.32 0 2.64 0 4 0 C4.33 1.65 4.66 3.3 5 5 C3.125 4.6875 3.125 4.6875 1 4 C0.34 3.01 -0.32 2.02 -1 1 C-0.67 0.67 -0.34 0.34 0 0 Z " fill="#762FDF" transform="translate(442,434)"/>
<path d="M0 0 C1.32 0 2.64 0 4 0 C3.67 1.65 3.34 3.3 3 5 C2.01 4.67 1.02 4.34 0 4 C0 2.68 0 1.36 0 0 Z " fill="#7227C9" transform="translate(356,410)"/>
<path d="M0 0 C0.33 1.32 0.66 2.64 1 4 C1.66 4 2.32 4 3 4 C3 5.32 3 6.64 3 8 C3.66 8 4.32 8 5 8 C4.67 8.66 4.34 9.32 4 10 C2 8.375 2 8.375 0 6 C-0.25 2.75 -0.25 2.75 0 0 Z " fill="#7732CD" transform="translate(345,398)"/>
<path d="M0 0 C0.66 0 1.32 0 2 0 C2.125 3.375 2.125 3.375 2 7 C1.34 7.66 0.68 8.32 0 9 C-1.15941038 5.52176885 -0.70820884 3.54104422 0 0 Z " fill="#58249E" transform="translate(442,367)"/>
<path d="M0 0 C0.66 0.33 1.32 0.66 2 1 C2.59355614 3.64860427 2.74209269 6.29197322 3 9 C2.34 9 1.68 9 1 9 C0.63877119 7.68942607 0.28619689 6.37646376 -0.0625 5.0625 C-0.35833984 3.96615234 -0.35833984 3.96615234 -0.66015625 2.84765625 C-0.77230469 2.23792969 -0.88445312 1.62820313 -1 1 C-0.67 0.67 -0.34 0.34 0 0 Z " fill="#5A1FA5" transform="translate(440,355)"/>
<path d="M0 0 C2 3 2 3 2 5 C-0.31 5.33 -2.62 5.66 -5 6 C-3.35 4.02 -1.7 2.04 0 0 Z " fill="#5D21AB" transform="translate(594,345)"/>
<path d="M0 0 C3.125 0.375 3.125 0.375 6 1 C5.67 1.99 5.34 2.98 5 4 C2.69 3.34 0.38 2.68 -2 2 C-1.34 1.34 -0.68 0.68 0 0 Z " fill="#732CC6" transform="translate(416,335)"/>
<path d="M0 0 C0.625 1.8125 0.625 1.8125 1 4 C0.01 5.485 0.01 5.485 -1 7 C-1.99 6.67 -2.98 6.34 -4 6 C-2.68 4.02 -1.36 2.04 0 0 Z " fill="#6F2BBD" transform="translate(648,332)"/>
<path d="M0 0 C1.33855056 0.78281305 2.67073644 1.57651877 4 2.375 C5.11375 3.03628906 5.11375 3.03628906 6.25 3.7109375 C6.8275 4.13632812 7.405 4.56171875 8 5 C8 5.66 8 6.32 8 7 C4.21388773 6.45912682 2.44599233 4.88277668 0 2 C0 1.34 0 0.68 0 0 Z " fill="#541F9A" transform="translate(446,310)"/>
<path d="M0 0 C2.97 0.33 5.94 0.66 9 1 C8.67 1.66 8.34 2.32 8 3 C5.6568787 2.74438677 3.32156597 2.40729228 1 2 C0.67 1.34 0.34 0.68 0 0 Z " fill="#000000" transform="translate(430,486)"/>
<path d="M0 0 C2.6855594 2.6855594 3.06049974 5.37621328 4 9 C1.47740939 7.02579865 1.0070192 6.03254358 0.3125 2.8125 C0.209375 1.884375 0.10625 0.95625 0 0 Z " fill="#000000" transform="translate(387,565)"/>
<path d="M0 0 C-0.66 1.32 -1.32 2.64 -2 4 C-2.99 3.67 -3.98 3.34 -5 3 C-2.25 0 -2.25 0 0 0 Z " fill="#000000" transform="translate(440,648)"/>
<path d="M0 0 C2.875 -0.125 2.875 -0.125 6 0 C6.66 0.66 7.32 1.32 8 2 C5.36 1.67 2.72 1.34 0 1 C0 0.67 0 0.34 0 0 Z " fill="#000000" transform="translate(375,449)"/>
<path d="M0 0 C0.66 0 1.32 0 2 0 C2.33 1.32 2.66 2.64 3 4 C2.01 3.34 1.02 2.68 0 2 C0 1.34 0 0.68 0 0 Z " fill="#000000" transform="translate(417,354)"/>
<path d="M0 0 C0.99 0.33 1.98 0.66 3 1 C2.34 1.66 1.68 2.32 1 3 C0.67 2.01 0.34 1.02 0 0 Z " fill="#000000" transform="translate(575,591)"/>
<path d="M0 0 C0 3 0 3 0 3 Z " fill="#000000" transform="translate(570,472)"/>
<path d="M0 0 C3 1 3 1 3 1 Z " fill="#000000" transform="translate(436,646)"/>
<path d="" fill="#000000" transform="translate(0,0)"/>
<path d="M0 0 C0.33 0.66 0.66 1.32 1 2 C0.34 1.67 -0.32 1.34 -1 1 C-0.67 0.67 -0.34 0.34 0 0 Z " fill="#000000" transform="translate(568,475)"/>
<path d="M0 0 C0.99 0.495 0.99 0.495 2 1 C1.01 1.495 1.01 1.495 0 2 C0 1.34 0 0.68 0 0 Z " fill="#000000" transform="translate(571,470)"/>
<path d="" fill="#000000" transform="translate(0,0)"/>
<path d="" fill="#000000" transform="translate(0,0)"/>
<path d="" fill="#000000" transform="translate(0,0)"/>
<path d="" fill="#000000" transform="translate(0,0)"/>
<path d="" fill="#000000" transform="translate(0,0)"/>
<path d="" fill="#000000" transform="translate(0,0)"/>
<path d="" fill="#000000" transform="translate(0,0)"/>
<path d="" fill="#000000" transform="translate(0,0)"/>
<path d="" fill="#000000" transform="translate(0,0)"/>
<path d="" fill="#000000" transform="translate(0,0)"/>
<path d="" fill="#000000" transform="translate(0,0)"/>
<path d="" fill="#000000" transform="translate(0,0)"/>
<path d="" fill="#000000" transform="translate(0,0)"/>
<path d="" fill="#000000" transform="translate(0,0)"/>
<path d="" fill="#000000" transform="translate(0,0)"/>
<path d="" fill="#000000" transform="translate(0,0)"/>
<path d="" fill="#000000" transform="translate(0,0)"/>
</svg>
